<svg width="48" height="48" viewBox="0 0 48 48" fill="none" xmlns="http://www.w3.org/2000/svg">
<rect width="48" height="48" rx="24" fill="#F3F8FF"/>
<path d="M31.5165 26.2572C31.0022 25.7885 30.1716 25.7885 29.6572 26.2572L26.6242 29.0376L20.9671 23.8516C20.4528 23.3828 19.6222 23.3828 19.1078 23.8516L9.87708 32.3137C9.36725 32.7905 9.37541 33.5558 9.89546 34.0232C10.1374 34.2407 10.3248 34.4956 10.6636 34.5H37.0371C37.7654 34.5038 38.4957 33.8346 38.5 33.167C38.502 32.8421 38.3614 32.5303 38.1099 32.3016L31.5165 26.2572Z" fill="#000E4B"/>
<path d="M29 21C31.2091 21 33 19.2091 33 17C33 14.7909 31.2091 13 29 13C26.7909 13 25 14.7909 25 17C25 19.2091 26.7909 21 29 21Z" fill="#000E4B"/>
</svg>
