<svg width="20" height="16" viewBox="0 0 20 16" fill="none" xmlns="http://www.w3.org/2000/svg">
<path d="M19.5568 2.94088L19.5818 3.10421C19.3401 2.24671 18.6876 1.58505 17.8585 1.34421L17.841 1.34005C16.2818 0.916712 10.0076 0.916712 10.0076 0.916712C10.0076 0.916712 3.7493 0.908378 2.1743 1.34005C1.3293 1.58505 0.675966 2.24671 0.438466 3.08671L0.434299 3.10421C-0.148201 6.14671 -0.152368 9.80255 0.460132 13.06L0.434299 12.895C0.675966 13.7525 1.32847 14.4142 2.15763 14.655L2.17513 14.6592C3.73263 15.0834 10.0085 15.0834 10.0085 15.0834C10.0085 15.0834 16.266 15.0834 17.8418 14.6592C18.6876 14.4142 19.341 13.7525 19.5785 12.9125L19.5826 12.895C19.8476 11.48 19.9993 9.85171 19.9993 8.18838C19.9993 8.12754 19.9993 8.06588 19.9985 8.00421C19.9993 7.94755 19.9993 7.88004 19.9993 7.81254C19.9993 6.14838 19.8476 4.52005 19.5568 2.94088ZM8.00597 11.0425V4.96505L13.2276 8.00838L8.00597 11.0425Z" fill="#000E4B"/>
</svg>
