<svg width="18" height="18" viewBox="0 0 18 18" fill="none" xmlns="http://www.w3.org/2000/svg">
<path d="M4.27779 18H0.5V4.45889H4.27779V18Z" fill="#000E4B"/>
<path d="M17.5 18H13.7222V9.62775C13.7222 8.64696 13.4483 7.96029 12.2715 7.96029C10.3203 7.96029 9.94443 9.62775 9.94443 9.62775V18H6.16665V4.45889H9.94443V5.75302C10.4846 5.3294 11.8333 4.4608 13.7222 4.4608C14.9462 4.4608 17.5 5.21136 17.5 9.74566V18Z" fill="#000E4B"/>
<path d="M2.50599 3.62904C1.52754 3.62904 0.736116 2.81656 0.736116 1.81452C0.736116 0.812478 1.52946 0 2.50599 0C3.48444 0.00190902 4.27779 0.814387 4.27779 1.81452C4.27779 2.81656 3.48444 3.62904 2.50599 3.62904Z" fill="#000E4B"/>
</svg>
