<svg width="18" height="18" viewBox="0 0 18 18" fill="none" xmlns="http://www.w3.org/2000/svg">
<path fill-rule="evenodd" clip-rule="evenodd" d="M13.0208 17.9997C12.169 17.9997 11.3679 17.7881 10.6673 17.4171C10.1579 17.5102 9.63245 17.5594 9.0951 17.5594C4.35394 17.5594 0.509995 13.7693 0.509995 9.09415C0.509995 8.51089 0.570089 7.94169 0.683989 7.39192C0.249702 6.66301 -0.000457764 5.81491 -0.000457764 4.90888C-0.000457764 2.19783 2.22862 -0.000272751 4.97829 -0.000272751C5.95237 -0.000272751 6.85973 0.27629 7.62733 0.753076C8.10459 0.672049 8.59513 0.629191 9.0951 0.629191C13.837 0.629191 17.6806 4.41937 17.6806 9.09415C17.6806 9.71759 17.6114 10.3253 17.4821 10.9106C17.813 11.5675 17.9995 12.3078 17.9995 13.0912C17.9992 15.8013 15.7705 17.9997 13.0208 17.9997ZM11.313 8.09035C11.8846 8.27082 12.379 8.49348 12.7822 8.75196C13.1934 9.0158 13.519 9.35498 13.75 9.75877C13.982 10.1649 14.0993 10.6665 14.0993 11.2497C14.0993 11.9468 13.8971 12.5823 13.4984 13.1391C13.1012 13.6929 12.5145 14.1319 11.7543 14.4436C11.001 14.752 10.0982 14.9087 9.07134 14.9087C7.83836 14.9087 6.80453 14.695 5.99745 14.2728C5.42061 13.9658 4.9451 13.5496 4.58383 13.036C4.21907 12.5177 4.03425 12.0027 4.03425 11.5065C4.03425 11.1965 4.15478 10.9276 4.39237 10.7073C4.6275 10.4893 4.92902 10.3789 5.28854 10.3789C5.58307 10.3789 5.83778 10.4659 6.04461 10.6383C6.24236 10.8034 6.41147 11.0482 6.54773 11.3632C6.69971 11.7071 6.86602 11.9967 7.04106 12.2257C7.20946 12.4457 7.45194 12.6299 7.76115 12.7745C8.07245 12.9195 8.49171 12.9935 9.0081 12.9935C9.71771 12.9935 10.2994 12.8438 10.7372 12.5492C11.1645 12.2612 11.3727 11.916 11.3727 11.4931C11.3727 11.1587 11.2641 10.8965 11.0412 10.6902C10.8074 10.475 10.4986 10.3075 10.1251 10.1924C9.73482 10.0722 9.20481 9.94292 8.54971 9.80799C7.65843 9.61982 6.90166 9.39616 6.29967 9.14404C5.68405 8.88589 5.18792 8.52763 4.82456 8.0793C4.45596 7.62529 4.26903 7.05408 4.26903 6.38343C4.26903 5.74392 4.46504 5.16736 4.85216 4.67015C5.23613 4.17663 5.79655 3.79259 6.51838 3.52942C7.23113 3.26993 8.07874 3.13801 9.0378 3.13801C9.804 3.13801 10.4787 3.2254 11.0412 3.39783C11.6072 3.5716 12.0844 3.80631 12.459 4.09526C12.8367 4.38589 13.1172 4.69727 13.294 5.02004C13.4719 5.34649 13.5623 5.67194 13.5623 5.986C13.5623 6.28868 13.4439 6.56323 13.2102 6.80296C12.975 7.04404 12.678 7.16625 12.3287 7.16625C12.0107 7.16625 11.7616 7.0889 11.5887 6.93857C11.4279 6.79861 11.2609 6.58031 11.0765 6.26625C10.8623 5.86446 10.603 5.54872 10.3061 5.32607C10.0175 5.10944 9.53533 4.99962 8.87254 4.99962C8.25727 4.99962 7.7566 5.12116 7.38521 5.36156C7.02709 5.59325 6.85309 5.85877 6.85309 6.17316C6.85309 6.36602 6.90899 6.52707 7.02429 6.66602C7.14623 6.81301 7.31847 6.94192 7.53614 7.04906C7.76184 7.16156 7.99418 7.24995 8.22723 7.3139C8.46551 7.37852 8.8659 7.47529 9.41514 7.60084C10.1101 7.7475 10.7484 7.91223 11.313 8.09035Z" fill="#000E4B"/>
</svg>
