<svg width="22" height="21" viewBox="0 0 22 21" fill="none" xmlns="http://www.w3.org/2000/svg">
<path d="M21.4635 9.18088L21.462 9.17938L12.2883 0.530973C11.9409 0.188507 11.4791 0 10.9878 0C10.4965 0 10.0346 0.188507 9.68704 0.530973L0.542385 9.17533C0.539641 9.17803 0.536745 9.18088 0.534154 9.18359C-0.179243 9.8906 -0.178024 11.0377 0.53766 11.7429C0.864633 12.0653 1.29633 12.2518 1.75806 12.2715C1.77696 12.2733 1.79586 12.2742 1.81491 12.2742H2.1396V18.8788C2.1396 20.0485 3.10543 21 4.29244 21H8.01376C8.33708 21 8.59911 20.7416 8.59911 20.4232V15.095C8.59911 14.5614 9.0398 14.1273 9.58141 14.1273H12.3227C12.8643 14.1273 13.3049 14.5614 13.3049 15.095V20.4232C13.3049 20.7416 13.5669 21 13.8902 21H17.7076C18.8948 21 19.8605 20.0485 19.8605 18.8788V12.2742H20.1617C20.6528 12.2742 21.1147 12.0857 21.4624 11.7431C22.1789 11.0368 22.1792 9.8876 21.4635 9.18088ZM20.6345 10.9275C20.5082 11.052 20.3402 11.1206 20.1617 11.1206H19.2751C18.9518 11.1206 18.6898 11.3788 18.6898 11.6974V18.8788C18.6898 19.4123 18.2492 19.8464 17.7076 19.8464H14.4756V15.095C14.4756 13.9254 13.5099 12.9737 12.3227 12.9737H9.58141C8.39424 12.9737 7.42841 13.9254 7.42841 15.095V19.8464H4.29244C3.75099 19.8464 3.3103 19.4123 3.3103 18.8788V11.6974C3.3103 11.3788 3.04827 11.1206 2.72495 11.1206H1.85363C1.84449 11.12 1.83549 11.1196 1.82619 11.1194C1.65181 11.1164 1.48825 11.0482 1.36569 10.9273C1.10502 10.6705 1.10502 10.2524 1.36569 9.99544L1.36645 9.99469L10.5151 1.34658C10.6413 1.22206 10.8091 1.15357 10.9878 1.15357C11.1663 1.15357 11.3341 1.22206 11.4605 1.34658L20.6319 9.99304C20.6332 9.99424 20.6345 9.99544 20.6358 9.99665C20.8951 10.2539 20.8946 10.6711 20.6345 10.9275Z" fill="#C3D6EC"/>
</svg>
