<svg width="19" height="22" viewBox="0 0 19 22" fill="none" xmlns="http://www.w3.org/2000/svg">
<path fill-rule="evenodd" clip-rule="evenodd" d="M10.6821 1.52766C9.88943 1.05898 8.90829 1.06417 8.12051 1.54119L1.70777 5.42435L4.99104 7.45306L12.7608 2.75677L10.6821 1.52766ZM13.9093 3.43592L6.11462 8.14732L9.3974 10.1757L17.2723 5.42438L13.9093 3.43592ZM17.8367 6.45655L9.97546 11.1997V20.3025L16.5663 16.4849C17.3519 16.0299 17.8367 15.1828 17.8367 14.2653V6.45655ZM8.8122 20.2903V11.1956L1.16327 6.46937V14.2869C1.16327 15.195 1.6383 16.0349 2.41119 16.4934L8.8122 20.2903ZM7.52417 0.528258C8.67553 -0.168932 10.1095 -0.17651 11.268 0.508475L19 5.08035V14.2653C19 15.6063 18.2914 16.8443 17.1432 17.5094L9.39036 22L1.82389 17.5117C0.694282 16.8417 0 15.6141 0 14.2869V5.08442L7.52417 0.528258Z" fill="#C3D6EC"/>
</svg>
