<svg width="210" height="42" viewBox="0 0 210 42" fill="none" xmlns="http://www.w3.org/2000/svg">
<path d="M0 7C0 3.13401 3.13401 0 7 0H203C206.866 0 210 3.13401 210 7V35C210 38.866 206.866 42 203 42H7.00001C3.13401 42 0 38.866 0 35V7Z" fill="#4A4895"/>
<path fill-rule="evenodd" clip-rule="evenodd" d="M17.91 11.05V31.22L34.36 30.94L33.84 16.03L32.1 13.7L28.43 10.61L17.91 11.05Z" fill="white"/>
<path fill-rule="evenodd" clip-rule="evenodd" d="M17 11.5C17.0026 11.3004 17.0445 11.1033 17.1233 10.9198C17.2021 10.7364 17.3163 10.5703 17.4593 10.431C17.6023 10.2917 17.7714 10.182 17.9568 10.108C18.1422 10.0341 18.3404 9.99737 18.54 10H28.91L34.82 15.85V30.5C34.8174 30.6996 34.7755 30.8968 34.6967 31.0802C34.6179 31.2636 34.5037 31.4297 34.3607 31.569C34.2177 31.7083 34.0487 31.818 33.8632 31.892C33.6778 31.966 33.4796 32.0027 33.28 32H18.54C18.3404 32.0027 18.1422 31.966 17.9568 31.892C17.7714 31.818 17.6023 31.7083 17.4593 31.569C17.3163 31.4297 17.2021 31.2636 17.1233 31.0802C17.0445 30.8968 17.0026 30.6996 17 30.5V11.5ZM18.54 11.42C18.5188 11.42 18.4984 11.4284 18.4834 11.4434C18.4684 11.4584 18.46 11.4788 18.46 11.5V30.5C18.46 30.5212 18.4684 30.5416 18.4834 30.5566C18.4984 30.5716 18.5188 30.58 18.54 30.58H33.28C33.3022 30.5801 33.3237 30.5721 33.3404 30.5573C33.357 30.5425 33.3675 30.5221 33.37 30.5V16.86H29.37C29.1704 16.8627 28.9722 16.826 28.7868 16.752C28.6014 16.678 28.4323 16.5683 28.2893 16.429C28.1463 16.2897 28.0321 16.1236 27.9533 15.9402C27.8745 15.7568 27.8326 15.5596 27.83 15.36V11.42H18.54ZM29.33 12.42L32.33 15.42H29.39C29.3704 15.4202 29.3514 15.4131 29.3367 15.4002C29.3219 15.3873 29.3125 15.3695 29.31 15.35L29.33 12.42Z" fill="white"/>
<path fill-rule="evenodd" clip-rule="evenodd" d="M27.85 15.36V10H28.91L29.33 10.42V15.26C29.33 15.37 29.33 15.43 29.48 15.43H34.37L34.82 15.86V16.86H29.5C29.2914 16.8779 29.0813 16.8525 28.883 16.7855C28.6847 16.7184 28.5024 16.6111 28.3474 16.4703C28.1925 16.3295 28.0684 16.1581 27.9828 15.9671C27.8972 15.776 27.852 15.5693 27.85 15.36Z" fill="#4A4895"/>
<path d="M30.7304 20H21.6445C21.2885 20 21 20.2885 21 20.6445C21 21.0005 21.2885 21.2891 21.6445 21.2891H30.7304C31.0864 21.2891 31.3749 21.0005 31.3749 20.6445C31.3749 20.2885 31.0864 20 30.7304 20Z" fill="#4A4895"/>
<path d="M21.6445 23.8672H29.0529C29.409 23.8672 29.6975 23.5787 29.6975 23.2227C29.6975 22.8667 29.409 22.5781 29.0529 22.5781H21.6445C21.2885 22.5781 21 22.8667 21 23.2227C21 23.5787 21.2885 23.8672 21.6445 23.8672Z" fill="#4A4895"/>
<path d="M29.9467 25.1562H21.6445C21.2885 25.1562 21 25.4448 21 25.8008C21 26.1568 21.2885 26.4453 21.6445 26.4453H29.9467C30.3026 26.4453 30.5913 26.1568 30.5913 25.8008C30.5913 25.4448 30.3026 25.1562 29.9467 25.1562Z" fill="#4A4895"/>
<path d="M58.796 24.5L57.036 21.442H56.079V24.5H54.825V16.855H57.465C58.0517 16.855 58.5467 16.9577 58.95 17.163C59.3607 17.3683 59.665 17.6433 59.863 17.988C60.0683 18.3327 60.171 18.7177 60.171 19.143C60.171 19.6417 60.0243 20.0963 59.731 20.507C59.445 20.9103 59.0013 21.1853 58.4 21.332L60.292 24.5H58.796ZM56.079 20.441H57.465C57.9343 20.441 58.2863 20.3237 58.521 20.089C58.763 19.8543 58.884 19.539 58.884 19.143C58.884 18.747 58.7667 18.439 58.532 18.219C58.2973 17.9917 57.9417 17.878 57.465 17.878H56.079V20.441ZM67.3302 21.321C67.3302 21.5483 67.3155 21.7537 67.2862 21.937H62.6552C62.6919 22.421 62.8715 22.8097 63.1942 23.103C63.5169 23.3963 63.9129 23.543 64.3822 23.543C65.0569 23.543 65.5335 23.2607 65.8122 22.696H67.1652C66.9819 23.2533 66.6482 23.7117 66.1642 24.071C65.6875 24.423 65.0935 24.599 64.3822 24.599C63.8029 24.599 63.2822 24.4707 62.8202 24.214C62.3655 23.95 62.0062 23.5833 61.7422 23.114C61.4855 22.6373 61.3572 22.0873 61.3572 21.464C61.3572 20.8407 61.4819 20.2943 61.7312 19.825C61.9879 19.3483 62.3435 18.9817 62.7982 18.725C63.2602 18.4683 63.7882 18.34 64.3822 18.34C64.9542 18.34 65.4639 18.4647 65.9112 18.714C66.3585 18.9633 66.7069 19.3153 66.9562 19.77C67.2055 20.2173 67.3302 20.7343 67.3302 21.321ZM66.0212 20.925C66.0139 20.463 65.8489 20.0927 65.5262 19.814C65.2035 19.5353 64.8039 19.396 64.3272 19.396C63.8945 19.396 63.5242 19.5353 63.2162 19.814C62.9082 20.0853 62.7249 20.4557 62.6662 20.925H66.0212ZM69.8183 19.33C70.0309 19.0513 70.3206 18.8167 70.6873 18.626C71.0539 18.4353 71.4683 18.34 71.9303 18.34C72.4583 18.34 72.9386 18.472 73.3713 18.736C73.8113 18.9927 74.1559 19.3557 74.4053 19.825C74.6546 20.2943 74.7793 20.8333 74.7793 21.442C74.7793 22.0507 74.6546 22.597 74.4053 23.081C74.1559 23.5577 73.8113 23.9317 73.3713 24.203C72.9386 24.467 72.4583 24.599 71.9303 24.599C71.4683 24.599 71.0576 24.5073 70.6983 24.324C70.3389 24.1333 70.0456 23.8987 69.8183 23.62V27.382H68.5643V18.439H69.8183V19.33ZM73.5033 21.442C73.5033 21.024 73.4153 20.6647 73.2393 20.364C73.0706 20.056 72.8433 19.825 72.5573 19.671C72.2786 19.5097 71.9779 19.429 71.6553 19.429C71.3399 19.429 71.0393 19.5097 70.7533 19.671C70.4746 19.8323 70.2473 20.067 70.0713 20.375C69.9026 20.683 69.8183 21.046 69.8183 21.464C69.8183 21.882 69.9026 22.2487 70.0713 22.564C70.2473 22.872 70.4746 23.1067 70.7533 23.268C71.0393 23.4293 71.3399 23.51 71.6553 23.51C71.9779 23.51 72.2786 23.4293 72.5573 23.268C72.8433 23.0993 73.0706 22.8573 73.2393 22.542C73.4153 22.2267 73.5033 21.86 73.5033 21.442ZM78.6483 24.599C78.0763 24.599 77.5593 24.4707 77.0973 24.214C76.6353 23.95 76.2723 23.5833 76.0083 23.114C75.7443 22.6373 75.6123 22.0873 75.6123 21.464C75.6123 20.848 75.748 20.3017 76.0193 19.825C76.2907 19.3483 76.661 18.9817 77.1303 18.725C77.5997 18.4683 78.124 18.34 78.7033 18.34C79.2827 18.34 79.807 18.4683 80.2763 18.725C80.7457 18.9817 81.116 19.3483 81.3873 19.825C81.6587 20.3017 81.7943 20.848 81.7943 21.464C81.7943 22.08 81.655 22.6263 81.3763 23.103C81.0977 23.5797 80.7163 23.95 80.2323 24.214C79.7557 24.4707 79.2277 24.599 78.6483 24.599ZM78.6483 23.51C78.971 23.51 79.2717 23.433 79.5503 23.279C79.8363 23.125 80.0673 22.894 80.2433 22.586C80.4193 22.278 80.5073 21.904 80.5073 21.464C80.5073 21.024 80.423 20.6537 80.2543 20.353C80.0857 20.045 79.862 19.814 79.5833 19.66C79.3047 19.506 79.004 19.429 78.6813 19.429C78.3587 19.429 78.058 19.506 77.7793 19.66C77.508 19.814 77.2917 20.045 77.1303 20.353C76.969 20.6537 76.8883 21.024 76.8883 21.464C76.8883 22.1167 77.0533 22.6227 77.3833 22.982C77.7207 23.334 78.1423 23.51 78.6483 23.51ZM84.288 19.319C84.4713 19.011 84.7133 18.7727 85.014 18.604C85.322 18.428 85.685 18.34 86.103 18.34V19.638H85.784C85.2927 19.638 84.9187 19.7627 84.662 20.012C84.4127 20.2613 84.288 20.694 84.288 21.31V24.5H83.034V18.439H84.288V19.319ZM88.7187 19.462V22.817C88.7187 23.0443 88.77 23.2093 88.8727 23.312C88.9827 23.4073 89.166 23.455 89.4227 23.455H90.1927V24.5H89.2027C88.638 24.5 88.2053 24.368 87.9047 24.104C87.604 23.84 87.4537 23.411 87.4537 22.817V19.462H86.7387V18.439H87.4537V16.932H88.7187V18.439H90.1927V19.462H88.7187ZM91.9864 17.636C91.7591 17.636 91.5684 17.559 91.4144 17.405C91.2604 17.251 91.1834 17.0603 91.1834 16.833C91.1834 16.6057 91.2604 16.415 91.4144 16.261C91.5684 16.107 91.7591 16.03 91.9864 16.03C92.2064 16.03 92.3934 16.107 92.5474 16.261C92.7014 16.415 92.7784 16.6057 92.7784 16.833C92.7784 17.0603 92.7014 17.251 92.5474 17.405C92.3934 17.559 92.2064 17.636 91.9864 17.636ZM92.6024 18.439V24.5H91.3484V18.439H92.6024ZM97.3068 18.34C97.7835 18.34 98.2088 18.439 98.5828 18.637C98.9642 18.835 99.2612 19.1283 99.4738 19.517C99.6865 19.9057 99.7928 20.375 99.7928 20.925V24.5H98.5498V21.112C98.5498 20.5693 98.4142 20.155 98.1428 19.869C97.8715 19.5757 97.5012 19.429 97.0318 19.429C96.5625 19.429 96.1885 19.5757 95.9098 19.869C95.6385 20.155 95.5028 20.5693 95.5028 21.112V24.5H94.2488V18.439H95.5028V19.132C95.7082 18.8827 95.9685 18.6883 96.2838 18.549C96.6065 18.4097 96.9475 18.34 97.3068 18.34ZM103.834 18.34C104.304 18.34 104.718 18.4353 105.077 18.626C105.444 18.8093 105.73 19.0403 105.935 19.319V18.439H107.2V24.599C107.2 25.1563 107.083 25.6513 106.848 26.084C106.614 26.524 106.273 26.8687 105.825 27.118C105.385 27.3673 104.857 27.492 104.241 27.492C103.42 27.492 102.738 27.2977 102.195 26.909C101.653 26.5277 101.345 26.007 101.271 25.347H102.514C102.61 25.6623 102.811 25.9153 103.119 26.106C103.435 26.304 103.809 26.403 104.241 26.403C104.747 26.403 105.154 26.249 105.462 25.941C105.778 25.633 105.935 25.1857 105.935 24.599V23.587C105.723 23.873 105.433 24.115 105.066 24.313C104.707 24.5037 104.296 24.599 103.834 24.599C103.306 24.599 102.822 24.467 102.382 24.203C101.95 23.9317 101.605 23.5577 101.348 23.081C101.099 22.597 100.974 22.0507 100.974 21.442C100.974 20.8333 101.099 20.2943 101.348 19.825C101.605 19.3557 101.95 18.9927 102.382 18.736C102.822 18.472 103.306 18.34 103.834 18.34ZM105.935 21.464C105.935 21.046 105.847 20.683 105.671 20.375C105.503 20.067 105.279 19.8323 105 19.671C104.722 19.5097 104.421 19.429 104.098 19.429C103.776 19.429 103.475 19.5097 103.196 19.671C102.918 19.825 102.69 20.056 102.514 20.364C102.346 20.6647 102.261 21.024 102.261 21.442C102.261 21.86 102.346 22.2267 102.514 22.542C102.69 22.8573 102.918 23.0993 103.196 23.268C103.482 23.4293 103.783 23.51 104.098 23.51C104.421 23.51 104.722 23.4293 105 23.268C105.279 23.1067 105.503 22.872 105.671 22.564C105.847 22.2487 105.935 21.882 105.935 21.464Z" fill="white"/>
</svg>
