<svg width="42" height="42" viewBox="0 0 42 42" fill="none" xmlns="http://www.w3.org/2000/svg">
<path d="M0 7C0 3.13401 3.13401 0 7 0H35C38.866 0 42 3.13401 42 7V35C42 38.866 38.866 42 35 42H7C3.13401 42 0 38.866 0 35V7Z" fill="#4A4895"/>
<path d="M31.4635 19.1809L31.462 19.1794L22.2884 10.531C21.941 10.1885 21.4791 10 20.9878 10C20.4965 10 20.0346 10.1885 19.687 10.531L10.5424 19.1753C10.5396 19.178 10.5367 19.1809 10.5342 19.1836C9.82076 19.8906 9.82198 21.0377 10.5377 21.7429C10.8646 22.0653 11.2963 22.2518 11.7581 22.2715C11.777 22.2733 11.7959 22.2742 11.8149 22.2742H12.1396V28.8788C12.1396 30.0485 13.1054 31 14.2924 31H18.0138C18.3371 31 18.5991 30.7416 18.5991 30.4232V25.095C18.5991 24.5614 19.0398 24.1273 19.5814 24.1273H22.3227C22.8643 24.1273 23.3049 24.5614 23.3049 25.095V30.4232C23.3049 30.7416 23.5669 31 23.8902 31H27.7076C28.8948 31 29.8605 30.0485 29.8605 28.8788V22.2742H30.1617C30.6528 22.2742 31.1147 22.0857 31.4624 21.7431C32.1789 21.0368 32.1792 19.8876 31.4635 19.1809ZM30.6345 20.9275C30.5082 21.052 30.3402 21.1206 30.1617 21.1206H29.2751C28.9518 21.1206 28.6898 21.3788 28.6898 21.6974V28.8788C28.6898 29.4123 28.2492 29.8464 27.7076 29.8464H24.4756V25.095C24.4756 23.9254 23.5099 22.9737 22.3227 22.9737H19.5814C18.3942 22.9737 17.4284 23.9254 17.4284 25.095V29.8464H14.2924C13.751 29.8464 13.3103 29.4123 13.3103 28.8788V21.6974C13.3103 21.3788 13.0483 21.1206 12.725 21.1206H11.8536C11.8445 21.12 11.8355 21.1196 11.8262 21.1194C11.6518 21.1164 11.4882 21.0482 11.3657 20.9273C11.105 20.6705 11.105 20.2524 11.3657 19.9954L11.3664 19.9947L20.5151 11.3466C20.6413 11.2221 20.8091 11.1536 20.9878 11.1536C21.1663 11.1536 21.3341 11.2221 21.4605 11.3466L30.6319 19.993C30.6332 19.9942 30.6345 19.9954 30.6358 19.9966C30.8951 20.2539 30.8946 20.6711 30.6345 20.9275Z" fill="white"/>
<path d="M21.5 10.5L30 18.5L31.5 20.5L31 21.5H29V27.5V29.5L28.5 30.5H27.5H24V25L23 23.5H19L18 24.5V30.5H14L12.5 29.5V27.5V21.5H11L10.5 20.5L11 19.5L20 11L21.5 10.5Z" fill="white"/>
</svg>
