<svg width="210" height="42" viewBox="0 0 210 42" fill="none" xmlns="http://www.w3.org/2000/svg">
<path d="M0 7C0 3.13401 3.13401 0 7 0H203C206.866 0 210 3.13401 210 7V35C210 38.866 206.866 42 203 42H7.00001C3.13401 42 0 38.866 0 35V7Z" fill="#4A4895"/>
<rect x="15.65" y="10.65" width="8.7" height="8.7" rx="1.35" fill="white" stroke="white" stroke-width="1.3"/>
<rect x="27.65" y="10.65" width="8.7" height="8.7" rx="1.35" fill="white" stroke="white" stroke-width="1.3"/>
<rect x="27.65" y="22.65" width="8.7" height="8.7" rx="1.35" fill="white" stroke="white" stroke-width="1.3"/>
<rect x="15.65" y="22.65" width="8.7" height="8.7" rx="1.35" fill="white" stroke="white" stroke-width="1.3"/>
<path d="M54.407 20.661C54.407 19.913 54.5793 19.242 54.924 18.648C55.276 18.054 55.749 17.592 56.343 17.262C56.9443 16.9247 57.6007 16.756 58.312 16.756C59.126 16.756 59.8483 16.9577 60.479 17.361C61.117 17.757 61.579 18.3217 61.865 19.055H60.358C60.16 18.6517 59.885 18.351 59.533 18.153C59.181 17.955 58.774 17.856 58.312 17.856C57.806 17.856 57.355 17.9697 56.959 18.197C56.563 18.4243 56.2513 18.7507 56.024 19.176C55.804 19.6013 55.694 20.0963 55.694 20.661C55.694 21.2257 55.804 21.7207 56.024 22.146C56.2513 22.5713 56.563 22.9013 56.959 23.136C57.355 23.3633 57.806 23.477 58.312 23.477C58.774 23.477 59.181 23.378 59.533 23.18C59.885 22.982 60.16 22.6813 60.358 22.278H61.865C61.579 23.0113 61.117 23.576 60.479 23.972C59.8483 24.368 59.126 24.566 58.312 24.566C57.5933 24.566 56.937 24.401 56.343 24.071C55.749 23.7337 55.276 23.268 54.924 22.674C54.5793 22.08 54.407 21.409 54.407 20.661ZM62.9148 21.442C62.9148 20.8333 63.0395 20.2943 63.2888 19.825C63.5455 19.3557 63.8901 18.9927 64.3228 18.736C64.7628 18.472 65.2468 18.34 65.7748 18.34C66.2515 18.34 66.6658 18.4353 67.0178 18.626C67.3771 18.8093 67.6631 19.0403 67.8758 19.319V18.439H69.1408V24.5H67.8758V23.598C67.6631 23.884 67.3735 24.1223 67.0068 24.313C66.6401 24.5037 66.2221 24.599 65.7528 24.599C65.2321 24.599 64.7555 24.467 64.3228 24.203C63.8901 23.9317 63.5455 23.5577 63.2888 23.081C63.0395 22.597 62.9148 22.0507 62.9148 21.442ZM67.8758 21.464C67.8758 21.046 67.7878 20.683 67.6118 20.375C67.4431 20.067 67.2195 19.8323 66.9408 19.671C66.6621 19.5097 66.3615 19.429 66.0388 19.429C65.7161 19.429 65.4155 19.5097 65.1368 19.671C64.8581 19.825 64.6308 20.056 64.4548 20.364C64.2861 20.6647 64.2018 21.024 64.2018 21.442C64.2018 21.86 64.2861 22.2267 64.4548 22.542C64.6308 22.8573 64.8581 23.0993 65.1368 23.268C65.4228 23.4293 65.7235 23.51 66.0388 23.51C66.3615 23.51 66.6621 23.4293 66.9408 23.268C67.2195 23.1067 67.4431 22.872 67.6118 22.564C67.7878 22.2487 67.8758 21.882 67.8758 21.464ZM72.2509 19.462V22.817C72.2509 23.0443 72.3022 23.2093 72.4049 23.312C72.5149 23.4073 72.6982 23.455 72.9549 23.455H73.7249V24.5H72.7349C72.1702 24.5 71.7376 24.368 71.4369 24.104C71.1362 23.84 70.9859 23.411 70.9859 22.817V19.462H70.2709V18.439H70.9859V16.932H72.2509V18.439H73.7249V19.462H72.2509ZM80.4357 21.321C80.4357 21.5483 80.421 21.7537 80.3917 21.937H75.7607C75.7973 22.421 75.977 22.8097 76.2997 23.103C76.6223 23.3963 77.0183 23.543 77.4877 23.543C78.1623 23.543 78.639 23.2607 78.9177 22.696H80.2707C80.0873 23.2533 79.7537 23.7117 79.2697 24.071C78.793 24.423 78.199 24.599 77.4877 24.599C76.9083 24.599 76.3877 24.4707 75.9257 24.214C75.471 23.95 75.1117 23.5833 74.8477 23.114C74.591 22.6373 74.4627 22.0873 74.4627 21.464C74.4627 20.8407 74.5873 20.2943 74.8367 19.825C75.0933 19.3483 75.449 18.9817 75.9037 18.725C76.3657 18.4683 76.8937 18.34 77.4877 18.34C78.0597 18.34 78.5693 18.4647 79.0167 18.714C79.464 18.9633 79.8123 19.3153 80.0617 19.77C80.311 20.2173 80.4357 20.7343 80.4357 21.321ZM79.1267 20.925C79.1193 20.463 78.9543 20.0927 78.6317 19.814C78.309 19.5353 77.9093 19.396 77.4327 19.396C77 19.396 76.6297 19.5353 76.3217 19.814C76.0137 20.0853 75.8303 20.4557 75.7717 20.925H79.1267ZM84.1117 18.34C84.5811 18.34 84.9954 18.4353 85.3547 18.626C85.7214 18.8093 86.0074 19.0403 86.2127 19.319V18.439H87.4777V24.599C87.4777 25.1563 87.3604 25.6513 87.1257 26.084C86.8911 26.524 86.5501 26.8687 86.1027 27.118C85.6627 27.3673 85.1347 27.492 84.5187 27.492C83.6974 27.492 83.0154 27.2977 82.4727 26.909C81.9301 26.5277 81.6221 26.007 81.5487 25.347H82.7917C82.8871 25.6623 83.0887 25.9153 83.3967 26.106C83.7121 26.304 84.0861 26.403 84.5187 26.403C85.0247 26.403 85.4317 26.249 85.7397 25.941C86.0551 25.633 86.2127 25.1857 86.2127 24.599V23.587C86.0001 23.873 85.7104 24.115 85.3437 24.313C84.9844 24.5037 84.5737 24.599 84.1117 24.599C83.5837 24.599 83.0997 24.467 82.6597 24.203C82.2271 23.9317 81.8824 23.5577 81.6257 23.081C81.3764 22.597 81.2517 22.0507 81.2517 21.442C81.2517 20.8333 81.3764 20.2943 81.6257 19.825C81.8824 19.3557 82.2271 18.9927 82.6597 18.736C83.0997 18.472 83.5837 18.34 84.1117 18.34ZM86.2127 21.464C86.2127 21.046 86.1247 20.683 85.9487 20.375C85.7801 20.067 85.5564 19.8323 85.2777 19.671C84.9991 19.5097 84.6984 19.429 84.3757 19.429C84.0531 19.429 83.7524 19.5097 83.4737 19.671C83.1951 19.825 82.9677 20.056 82.7917 20.364C82.6231 20.6647 82.5387 21.024 82.5387 21.442C82.5387 21.86 82.6231 22.2267 82.7917 22.542C82.9677 22.8573 83.1951 23.0993 83.4737 23.268C83.7597 23.4293 84.0604 23.51 84.3757 23.51C84.6984 23.51 84.9991 23.4293 85.2777 23.268C85.5564 23.1067 85.7801 22.872 85.9487 22.564C86.1247 22.2487 86.2127 21.882 86.2127 21.464ZM91.7538 24.599C91.1818 24.599 90.6648 24.4707 90.2028 24.214C89.7408 23.95 89.3778 23.5833 89.1138 23.114C88.8498 22.6373 88.7178 22.0873 88.7178 21.464C88.7178 20.848 88.8535 20.3017 89.1248 19.825C89.3961 19.3483 89.7665 18.9817 90.2358 18.725C90.7051 18.4683 91.2295 18.34 91.8088 18.34C92.3881 18.34 92.9125 18.4683 93.3818 18.725C93.8511 18.9817 94.2215 19.3483 94.4928 19.825C94.7641 20.3017 94.8998 20.848 94.8998 21.464C94.8998 22.08 94.7605 22.6263 94.4818 23.103C94.2031 23.5797 93.8218 23.95 93.3378 24.214C92.8611 24.4707 92.3331 24.599 91.7538 24.599ZM91.7538 23.51C92.0765 23.51 92.3771 23.433 92.6558 23.279C92.9418 23.125 93.1728 22.894 93.3488 22.586C93.5248 22.278 93.6128 21.904 93.6128 21.464C93.6128 21.024 93.5285 20.6537 93.3598 20.353C93.1911 20.045 92.9675 19.814 92.6888 19.66C92.4101 19.506 92.1095 19.429 91.7868 19.429C91.4641 19.429 91.1635 19.506 90.8848 19.66C90.6135 19.814 90.3971 20.045 90.2358 20.353C90.0745 20.6537 89.9938 21.024 89.9938 21.464C89.9938 22.1167 90.1588 22.6227 90.4888 22.982C90.8261 23.334 91.2478 23.51 91.7538 23.51ZM97.3935 19.319C97.5768 19.011 97.8188 18.7727 98.1195 18.604C98.4275 18.428 98.7905 18.34 99.2085 18.34V19.638H98.8895C98.3981 19.638 98.0241 19.7627 97.7675 20.012C97.5181 20.2613 97.3935 20.694 97.3935 21.31V24.5H96.1395V18.439H97.3935V19.319ZM100.999 17.636C100.772 17.636 100.581 17.559 100.427 17.405C100.273 17.251 100.196 17.0603 100.196 16.833C100.196 16.6057 100.273 16.415 100.427 16.261C100.581 16.107 100.772 16.03 100.999 16.03C101.219 16.03 101.406 16.107 101.56 16.261C101.714 16.415 101.791 16.6057 101.791 16.833C101.791 17.0603 101.714 17.251 101.56 17.405C101.406 17.559 101.219 17.636 100.999 17.636ZM101.615 18.439V24.5H100.361V18.439H101.615ZM108.817 21.321C108.817 21.5483 108.802 21.7537 108.773 21.937H104.142C104.178 22.421 104.358 22.8097 104.681 23.103C105.003 23.3963 105.399 23.543 105.869 23.543C106.543 23.543 107.02 23.2607 107.299 22.696H108.652C108.468 23.2533 108.135 23.7117 107.651 24.071C107.174 24.423 106.58 24.599 105.869 24.599C105.289 24.599 104.769 24.4707 104.307 24.214C103.852 23.95 103.493 23.5833 103.229 23.114C102.972 22.6373 102.844 22.0873 102.844 21.464C102.844 20.8407 102.968 20.2943 103.218 19.825C103.474 19.3483 103.83 18.9817 104.285 18.725C104.747 18.4683 105.275 18.34 105.869 18.34C106.441 18.34 106.95 18.4647 107.398 18.714C107.845 18.9633 108.193 19.3153 108.443 19.77C108.692 20.2173 108.817 20.7343 108.817 21.321ZM107.508 20.925C107.5 20.463 107.335 20.0927 107.013 19.814C106.69 19.5353 106.29 19.396 105.814 19.396C105.381 19.396 105.011 19.5353 104.703 19.814C104.395 20.0853 104.211 20.4557 104.153 20.925H107.508ZM112.251 24.599C111.774 24.599 111.345 24.5147 110.964 24.346C110.59 24.17 110.293 23.9353 110.073 23.642C109.853 23.3413 109.735 23.0077 109.721 22.641H111.019C111.041 22.8977 111.162 23.114 111.382 23.29C111.609 23.4587 111.891 23.543 112.229 23.543C112.581 23.543 112.852 23.477 113.043 23.345C113.241 23.2057 113.34 23.0297 113.34 22.817C113.34 22.5897 113.23 22.421 113.01 22.311C112.797 22.201 112.456 22.08 111.987 21.948C111.532 21.8233 111.162 21.7023 110.876 21.585C110.59 21.4677 110.34 21.288 110.128 21.046C109.922 20.804 109.82 20.485 109.82 20.089C109.82 19.7663 109.915 19.473 110.106 19.209C110.296 18.9377 110.568 18.725 110.92 18.571C111.279 18.417 111.69 18.34 112.152 18.34C112.841 18.34 113.395 18.516 113.813 18.868C114.238 19.2127 114.465 19.6857 114.495 20.287H113.241C113.219 20.0157 113.109 19.7993 112.911 19.638C112.713 19.4767 112.445 19.396 112.108 19.396C111.778 19.396 111.525 19.4583 111.349 19.583C111.173 19.7077 111.085 19.8727 111.085 20.078C111.085 20.2393 111.143 20.375 111.261 20.485C111.378 20.595 111.521 20.683 111.69 20.749C111.858 20.8077 112.108 20.8847 112.438 20.98C112.878 21.0973 113.237 21.2183 113.516 21.343C113.802 21.4603 114.047 21.6363 114.253 21.871C114.458 22.1057 114.564 22.4173 114.572 22.806C114.572 23.1507 114.476 23.4587 114.286 23.73C114.095 24.0013 113.824 24.214 113.472 24.368C113.127 24.522 112.72 24.599 112.251 24.599Z" fill="white"/>
</svg>
