<svg width="42" height="42" viewBox="0 0 42 42" fill="none" xmlns="http://www.w3.org/2000/svg">
<path d="M0 7C0 3.13401 3.13401 0 7 0H35C38.866 0 42 3.13401 42 7V35C42 38.866 38.866 42 35 42H7C3.13401 42 0 38.866 0 35V7Z" fill="#4A4895"/>
<path fill-rule="evenodd" clip-rule="evenodd" d="M24 17.7342C25.5101 17.7342 26.7342 16.5101 26.7342 15C26.7342 13.4899 25.5101 12.2658 24 12.2658C22.4899 12.2658 21.2658 13.4899 21.2658 15C21.2658 16.5101 22.4899 17.7342 24 17.7342ZM24 19C26.2091 19 28 17.2091 28 15C28 12.7909 26.2091 11 24 11C21.7909 11 20 12.7909 20 15C20 17.2091 21.7909 19 24 19Z" fill="white"/>
<path fill-rule="evenodd" clip-rule="evenodd" d="M23.8696 22.0087C19.6714 22.0087 17.0455 25.7032 17.0455 30H15.6522C15.6522 25.1529 18.6705 20.5217 23.8696 20.5217C29.0688 20.5217 32 25.1529 32 30H30.6067C30.6067 25.7032 28.0678 22.0087 23.8696 22.0087Z" fill="white"/>
<path fill-rule="evenodd" clip-rule="evenodd" d="M16 19.6404C16.906 19.6404 17.6404 18.906 17.6404 18C17.6404 17.094 16.906 16.3596 16 16.3596C15.094 16.3596 14.3596 17.094 14.3596 18C14.3596 18.906 15.094 19.6404 16 19.6404ZM16 21C17.6569 21 19 19.6569 19 18C19 16.3431 17.6569 15 16 15C14.3431 15 13 16.3431 13 18C13 19.6569 14.3431 21 16 21Z" fill="white"/>
<path fill-rule="evenodd" clip-rule="evenodd" d="M15.683 23.8671C16.5183 23.8671 17.2997 24.1054 17.9759 24.5212L18.6086 23.1841C17.7413 22.6507 16.7428 22.3478 15.683 22.3478C13.9466 22.3478 12.5136 23.4246 11.5384 24.8767C10.5661 26.3246 9.99995 28.2094 9.99995 30H11.3326C11.3326 28.5499 11.7987 26.9884 12.5966 25.8002C13.3917 24.6163 14.4671 23.8671 15.683 23.8671Z" fill="white"/>
<circle cx="24" cy="15" r="3" fill="white"/>
<circle cx="16" cy="18" r="2" fill="white"/>
<path d="M16 30H31L30.5 26L27.5 22L25 21.5H21.5L18.5 23.5H17H14.5L12 25.5L10.5 30H16Z" fill="white"/>
</svg>
