<svg width="42" height="42" viewBox="0 0 42 42" fill="none" xmlns="http://www.w3.org/2000/svg">
<path d="M0 7C0 3.13401 3.13401 0 7 0H35C38.866 0 42 3.13401 42 7V35C42 38.866 38.866 42 35 42H7C3.13401 42 0 38.866 0 35V7Z" fill="#4A4895"/>
<path fill-rule="evenodd" clip-rule="evenodd" d="M12.91 11.05V31.22L29.36 30.94L28.84 16.03L27.1 13.7L23.43 10.61L12.91 11.05Z" fill="white"/>
<path fill-rule="evenodd" clip-rule="evenodd" d="M12 11.5C12.0026 11.3004 12.0445 11.1033 12.1233 10.9198C12.2021 10.7364 12.3163 10.5703 12.4593 10.431C12.6023 10.2917 12.7714 10.182 12.9568 10.108C13.1422 10.0341 13.3404 9.99737 13.54 10H23.91L29.82 15.85V30.5C29.8174 30.6996 29.7755 30.8968 29.6967 31.0802C29.6179 31.2636 29.5037 31.4297 29.3607 31.569C29.2177 31.7083 29.0487 31.818 28.8632 31.892C28.6778 31.966 28.4796 32.0027 28.28 32H13.54C13.3404 32.0027 13.1422 31.966 12.9568 31.892C12.7714 31.818 12.6023 31.7083 12.4593 31.569C12.3163 31.4297 12.2021 31.2636 12.1233 31.0802C12.0445 30.8968 12.0026 30.6996 12 30.5V11.5ZM13.54 11.42C13.5188 11.42 13.4984 11.4284 13.4834 11.4434C13.4684 11.4584 13.46 11.4788 13.46 11.5V30.5C13.46 30.5212 13.4684 30.5416 13.4834 30.5566C13.4984 30.5716 13.5188 30.58 13.54 30.58H28.28C28.3022 30.5801 28.3237 30.5721 28.3404 30.5573C28.357 30.5425 28.3675 30.5221 28.37 30.5V16.86H24.37C24.1704 16.8627 23.9722 16.826 23.7868 16.752C23.6014 16.678 23.4323 16.5683 23.2893 16.429C23.1463 16.2897 23.0321 16.1236 22.9533 15.9402C22.8745 15.7568 22.8326 15.5596 22.83 15.36V11.42H13.54ZM24.33 12.42L27.33 15.42H24.39C24.3704 15.4202 24.3514 15.4131 24.3367 15.4002C24.3219 15.3873 24.3125 15.3695 24.31 15.35L24.33 12.42Z" fill="white"/>
<path fill-rule="evenodd" clip-rule="evenodd" d="M20.91 18C20.994 17.9973 21.0778 18.0112 21.1565 18.041C21.2352 18.0707 21.3072 18.1156 21.3685 18.1732C21.4298 18.2308 21.4791 18.2999 21.5137 18.3765C21.5483 18.4532 21.5674 18.5359 21.57 18.62V23.62L23.45 21.82C23.576 21.7019 23.7423 21.6361 23.915 21.6361C24.0877 21.6361 24.254 21.7019 24.38 21.82C24.4419 21.8753 24.4915 21.9431 24.5254 22.019C24.5594 22.0948 24.5769 22.1769 24.5769 22.26C24.5769 22.3431 24.5594 22.4252 24.5254 22.501C24.4915 22.5768 24.4419 22.6446 24.38 22.7L20.91 26L17.43 22.65C17.3694 22.5938 17.3211 22.5258 17.288 22.45C17.255 22.3743 17.2379 22.2926 17.2379 22.21C17.2379 22.1274 17.255 22.0457 17.288 21.9699C17.3211 21.8942 17.3694 21.8262 17.43 21.77C17.5577 21.6512 17.7256 21.5852 17.9 21.5852C18.0744 21.5852 18.2423 21.6512 18.37 21.77L20.24 23.57V18.57C20.2599 18.4083 20.3398 18.26 20.4639 18.1544C20.588 18.0489 20.7472 17.9938 20.91 18Z" fill="#4A4895"/>
<path fill-rule="evenodd" clip-rule="evenodd" d="M22.85 15.36V10H23.91L24.33 10.42V15.26C24.33 15.37 24.33 15.43 24.48 15.43H29.37L29.82 15.86V16.86H24.5C24.2914 16.8779 24.0813 16.8525 23.883 16.7855C23.6847 16.7184 23.5024 16.6111 23.3474 16.4703C23.1925 16.3295 23.0684 16.1581 22.9828 15.9671C22.8972 15.776 22.852 15.5693 22.85 15.36Z" fill="#4A4895"/>
</svg>
