<svg width="210" height="42" viewBox="0 0 210 42" fill="none" xmlns="http://www.w3.org/2000/svg">
<path d="M0 7C0 3.13401 3.13401 0 7 0H203C206.866 0 210 3.13401 210 7V35C210 38.866 206.866 42 203 42H7.00001C3.13401 42 0 38.866 0 35V7Z" fill="#4A4895"/>
<path fill-rule="evenodd" clip-rule="evenodd" d="M29 17.7342C30.5101 17.7342 31.7342 16.5101 31.7342 15C31.7342 13.4899 30.5101 12.2658 29 12.2658C27.4899 12.2658 26.2658 13.4899 26.2658 15C26.2658 16.5101 27.4899 17.7342 29 17.7342ZM29 19C31.2091 19 33 17.2091 33 15C33 12.7909 31.2091 11 29 11C26.7909 11 25 12.7909 25 15C25 17.2091 26.7909 19 29 19Z" fill="white"/>
<path fill-rule="evenodd" clip-rule="evenodd" d="M28.8696 22.0087C24.6714 22.0087 22.0455 25.7032 22.0455 30H20.6522C20.6522 25.1529 23.6705 20.5217 28.8696 20.5217C34.0688 20.5217 37 25.1529 37 30H35.6067C35.6067 25.7032 33.0678 22.0087 28.8696 22.0087Z" fill="white"/>
<path fill-rule="evenodd" clip-rule="evenodd" d="M21 19.6404C21.906 19.6404 22.6404 18.906 22.6404 18C22.6404 17.094 21.906 16.3596 21 16.3596C20.094 16.3596 19.3596 17.094 19.3596 18C19.3596 18.906 20.094 19.6404 21 19.6404ZM21 21C22.6569 21 24 19.6569 24 18C24 16.3431 22.6569 15 21 15C19.3431 15 18 16.3431 18 18C18 19.6569 19.3431 21 21 21Z" fill="white"/>
<path fill-rule="evenodd" clip-rule="evenodd" d="M20.683 23.8671C21.5183 23.8671 22.2997 24.1054 22.9759 24.5212L23.6086 23.1841C22.7413 22.6507 21.7428 22.3478 20.683 22.3478C18.9466 22.3478 17.5136 23.4246 16.5384 24.8767C15.5661 26.3246 14.9999 28.2094 14.9999 30H16.3326C16.3326 28.5499 16.7987 26.9884 17.5966 25.8002C18.3917 24.6163 19.4671 23.8671 20.683 23.8671Z" fill="white"/>
<circle cx="29" cy="15" r="3" fill="white"/>
<circle cx="21" cy="18" r="2" fill="white"/>
<path d="M21 30H36L35.5 26L32.5 22L30 21.5H26.5L23.5 23.5H22H19.5L17 25.5L15.5 30H21Z" fill="white"/>
<path d="M62.877 16.855V24.5H61.623V19.264L59.291 24.5H58.422L56.079 19.264V24.5H54.825V16.855H56.178L58.862 22.85L61.535 16.855H62.877ZM69.9812 18.439L66.2632 27.349H64.9652L66.1972 24.401L63.8102 18.439H65.2072L66.9122 23.059L68.6832 18.439H69.9812ZM75.248 19.462V22.817C75.248 23.0443 75.2993 23.2093 75.402 23.312C75.512 23.4073 75.6953 23.455 75.952 23.455H76.722V24.5H75.732C75.1673 24.5 74.7346 24.368 74.434 24.104C74.1333 23.84 73.983 23.411 73.983 22.817V19.462H73.268V18.439H73.983V16.932H75.248V18.439H76.722V19.462H75.248ZM83.4327 21.321C83.4327 21.5483 83.4181 21.7537 83.3887 21.937H78.7577C78.7944 22.421 78.9741 22.8097 79.2967 23.103C79.6194 23.3963 80.0154 23.543 80.4847 23.543C81.1594 23.543 81.6361 23.2607 81.9147 22.696H83.2677C83.0844 23.2533 82.7507 23.7117 82.2667 24.071C81.7901 24.423 81.1961 24.599 80.4847 24.599C79.9054 24.599 79.3847 24.4707 78.9227 24.214C78.4681 23.95 78.1087 23.5833 77.8447 23.114C77.5881 22.6373 77.4597 22.0873 77.4597 21.464C77.4597 20.8407 77.5844 20.2943 77.8337 19.825C78.0904 19.3483 78.4461 18.9817 78.9007 18.725C79.3627 18.4683 79.8907 18.34 80.4847 18.34C81.0567 18.34 81.5664 18.4647 82.0137 18.714C82.4611 18.9633 82.8094 19.3153 83.0587 19.77C83.3081 20.2173 83.4327 20.7343 83.4327 21.321ZM82.1237 20.925C82.1164 20.463 81.9514 20.0927 81.6287 19.814C81.3061 19.5353 80.9064 19.396 80.4297 19.396C79.9971 19.396 79.6267 19.5353 79.3187 19.814C79.0107 20.0853 78.8274 20.4557 78.7687 20.925H82.1237ZM84.2488 21.442C84.2488 20.8333 84.3735 20.2943 84.6228 19.825C84.8795 19.3557 85.2241 18.9927 85.6568 18.736C86.0968 18.472 86.5808 18.34 87.1088 18.34C87.5855 18.34 87.9998 18.4353 88.3518 18.626C88.7111 18.8093 88.9971 19.0403 89.2098 19.319V18.439H90.4748V24.5H89.2098V23.598C88.9971 23.884 88.7075 24.1223 88.3408 24.313C87.9741 24.5037 87.5561 24.599 87.0868 24.599C86.5661 24.599 86.0895 24.467 85.6568 24.203C85.2241 23.9317 84.8795 23.5577 84.6228 23.081C84.3735 22.597 84.2488 22.0507 84.2488 21.442ZM89.2098 21.464C89.2098 21.046 89.1218 20.683 88.9458 20.375C88.7771 20.067 88.5535 19.8323 88.2748 19.671C87.9961 19.5097 87.6955 19.429 87.3728 19.429C87.0501 19.429 86.7495 19.5097 86.4708 19.671C86.1921 19.825 85.9648 20.056 85.7888 20.364C85.6201 20.6647 85.5358 21.024 85.5358 21.442C85.5358 21.86 85.6201 22.2267 85.7888 22.542C85.9648 22.8573 86.1921 23.0993 86.4708 23.268C86.7568 23.4293 87.0575 23.51 87.3728 23.51C87.6955 23.51 87.9961 23.4293 88.2748 23.268C88.5535 23.1067 88.7771 22.872 88.9458 22.564C89.1218 22.2487 89.2098 21.882 89.2098 21.464ZM99.4589 18.34C99.9355 18.34 100.361 18.439 100.735 18.637C101.116 18.835 101.413 19.1283 101.626 19.517C101.846 19.9057 101.956 20.375 101.956 20.925V24.5H100.713V21.112C100.713 20.5693 100.577 20.155 100.306 19.869C100.035 19.5757 99.6642 19.429 99.1949 19.429C98.7255 19.429 98.3515 19.5757 98.0729 19.869C97.8015 20.155 97.6659 20.5693 97.6659 21.112V24.5H96.4229V21.112C96.4229 20.5693 96.2872 20.155 96.0159 19.869C95.7445 19.5757 95.3742 19.429 94.9049 19.429C94.4355 19.429 94.0615 19.5757 93.7829 19.869C93.5115 20.155 93.3759 20.5693 93.3759 21.112V24.5H92.1219V18.439H93.3759V19.132C93.5812 18.8827 93.8415 18.6883 94.1569 18.549C94.4722 18.4097 94.8095 18.34 95.1689 18.34C95.6529 18.34 96.0855 18.4427 96.4669 18.648C96.8482 18.8533 97.1415 19.1503 97.3469 19.539C97.5302 19.1723 97.8162 18.8827 98.2049 18.67C98.5935 18.45 99.0115 18.34 99.4589 18.34Z" fill="white"/>
</svg>
