<svg width="42" height="42" viewBox="0 0 42 42" fill="none" xmlns="http://www.w3.org/2000/svg">
<path d="M0 7C0 3.13401 3.13401 0 7 0H35C38.866 0 42 3.13401 42 7V35C42 38.866 38.866 42 35 42H7C3.13401 42 0 38.866 0 35V7Z" fill="#4A4895"/>
<path d="M11 15.32L19.03 10.8C19.4609 10.5591 19.9463 10.4327 20.44 10.4327C20.9337 10.4327 21.4191 10.5591 21.85 10.8L25.27 12.68L30.1 15.34V24.24C30.0941 24.7637 29.947 25.276 29.6742 25.7231C29.4014 26.1701 29.013 26.5353 28.55 26.78L20.42 31.17L12.55 26.79C12.0955 26.537 11.7169 26.1673 11.4532 25.719C11.1894 25.2707 11.0503 24.7601 11.05 24.24L11 15.32Z" fill="white"/>
<path fill-rule="evenodd" clip-rule="evenodd" d="M21.74 11.53C21.3502 11.2965 20.9044 11.1731 20.45 11.1731C19.9956 11.1731 19.5498 11.2965 19.16 11.53L12.72 15.42L16.02 17.42L23.83 12.73L21.74 11.53ZM24.98 13.44L17.15 18.15L20.45 20.15L28.36 15.39L24.98 13.44ZM28.93 16.44L21.03 21.18V30.28L27.65 26.46C28.0388 26.2367 28.3619 25.9148 28.5866 25.5268C28.8113 25.1388 28.9298 24.6984 28.93 24.25V16.44ZM19.86 30.29V21.2L12.17 16.47V24.29C12.1699 24.7347 12.2862 25.1718 12.5072 25.5577C12.7282 25.9436 13.0464 26.265 13.43 26.49L19.86 30.29ZM18.55 10.53C19.1196 10.189 19.7711 10.0089 20.435 10.0089C21.0989 10.0089 21.7504 10.189 22.32 10.53L30.09 15.1V24.29C30.0912 24.9469 29.9189 25.5924 29.5905 26.1614C29.2622 26.7303 28.7894 27.2024 28.22 27.53L20.44 32L12.84 27.51C12.2798 27.1796 11.8154 26.7088 11.4928 26.1441C11.1701 25.5794 11.0002 24.9404 11 24.29V15.08L18.55 10.53Z" fill="white"/>
<path fill-rule="evenodd" clip-rule="evenodd" d="M16.75 18.05L25.55 12.39L24.31 11.66L15.67 17.37L11.55 14.77L11.03 15.08V15.6L20.11 21.37V31.79L20.47 32L21.11 31.63V21.37L30.11 15.6V15.08L29.55 14.78L20.55 20.45L16.75 18.05Z" fill="#4A4895"/>
</svg>
