<svg width="210" height="42" viewBox="0 0 210 42" fill="none" xmlns="http://www.w3.org/2000/svg">
<path d="M0 7C0 3.13401 3.13401 0 7 0H203C206.866 0 210 3.13401 210 7V35C210 38.866 206.866 42 203 42H7.00001C3.13401 42 0 38.866 0 35V7Z" fill="#4A4895"/>
<path d="M36.4635 19.1809L36.462 19.1794L27.2884 10.531C26.941 10.1885 26.4791 10 25.9878 10C25.4965 10 25.0346 10.1885 24.687 10.531L15.5424 19.1753C15.5396 19.178 15.5367 19.1809 15.5342 19.1836C14.8208 19.8906 14.822 21.0377 15.5377 21.7429C15.8646 22.0653 16.2963 22.2518 16.7581 22.2715C16.777 22.2733 16.7959 22.2742 16.8149 22.2742H17.1396V28.8788C17.1396 30.0485 18.1054 31 19.2924 31H23.0138C23.3371 31 23.5991 30.7416 23.5991 30.4232V25.095C23.5991 24.5614 24.0398 24.1273 24.5814 24.1273H27.3227C27.8643 24.1273 28.3049 24.5614 28.3049 25.095V30.4232C28.3049 30.7416 28.5669 31 28.8902 31H32.7076C33.8948 31 34.8605 30.0485 34.8605 28.8788V22.2742H35.1617C35.6528 22.2742 36.1147 22.0857 36.4624 21.7431C37.1789 21.0368 37.1792 19.8876 36.4635 19.1809ZM35.6345 20.9275C35.5082 21.052 35.3402 21.1206 35.1617 21.1206H34.2751C33.9518 21.1206 33.6898 21.3788 33.6898 21.6974V28.8788C33.6898 29.4123 33.2492 29.8464 32.7076 29.8464H29.4756V25.095C29.4756 23.9254 28.5099 22.9737 27.3227 22.9737H24.5814C23.3942 22.9737 22.4284 23.9254 22.4284 25.095V29.8464H19.2924C18.751 29.8464 18.3103 29.4123 18.3103 28.8788V21.6974C18.3103 21.3788 18.0483 21.1206 17.725 21.1206H16.8536C16.8445 21.12 16.8355 21.1196 16.8262 21.1194C16.6518 21.1164 16.4882 21.0482 16.3657 20.9273C16.105 20.6705 16.105 20.2524 16.3657 19.9954L16.3664 19.9947L25.5151 11.3466C25.6413 11.2221 25.8091 11.1536 25.9878 11.1536C26.1663 11.1536 26.3341 11.2221 26.4605 11.3466L35.6319 19.993C35.6332 19.9942 35.6345 19.9954 35.6358 19.9966C35.8951 20.2539 35.8946 20.6711 35.6345 20.9275Z" fill="white"/>
<path d="M26.5 10.5L35 18.5L36.5 20.5L36 21.5H34V27.5V29.5L33.5 30.5H32.5H29V25L28 23.5H24L23 24.5V30.5H19L17.5 29.5V27.5V21.5H16L15.5 20.5L16 19.5L25 11L26.5 10.5Z" fill="white"/>
<path d="M60.93 16.855V24.5H59.676V21.156H56.079V24.5H54.825V16.855H56.079V20.133H59.676V16.855H60.93ZM65.2099 24.599C64.6379 24.599 64.1209 24.4707 63.6589 24.214C63.1969 23.95 62.8339 23.5833 62.5699 23.114C62.3059 22.6373 62.1739 22.0873 62.1739 21.464C62.1739 20.848 62.3095 20.3017 62.5809 19.825C62.8522 19.3483 63.2225 18.9817 63.6919 18.725C64.1612 18.4683 64.6855 18.34 65.2649 18.34C65.8442 18.34 66.3685 18.4683 66.8379 18.725C67.3072 18.9817 67.6775 19.3483 67.9489 19.825C68.2202 20.3017 68.3559 20.848 68.3559 21.464C68.3559 22.08 68.2165 22.6263 67.9379 23.103C67.6592 23.5797 67.2779 23.95 66.7939 24.214C66.3172 24.4707 65.7892 24.599 65.2099 24.599ZM65.2099 23.51C65.5325 23.51 65.8332 23.433 66.1119 23.279C66.3979 23.125 66.6289 22.894 66.8049 22.586C66.9809 22.278 67.0689 21.904 67.0689 21.464C67.0689 21.024 66.9845 20.6537 66.8159 20.353C66.6472 20.045 66.4235 19.814 66.1449 19.66C65.8662 19.506 65.5655 19.429 65.2429 19.429C64.9202 19.429 64.6195 19.506 64.3409 19.66C64.0695 19.814 63.8532 20.045 63.6919 20.353C63.5305 20.6537 63.4499 21.024 63.4499 21.464C63.4499 22.1167 63.6149 22.6227 63.9449 22.982C64.2822 23.334 64.7039 23.51 65.2099 23.51ZM76.9325 18.34C77.4092 18.34 77.8345 18.439 78.2085 18.637C78.5898 18.835 78.8868 19.1283 79.0995 19.517C79.3195 19.9057 79.4295 20.375 79.4295 20.925V24.5H78.1865V21.112C78.1865 20.5693 78.0508 20.155 77.7795 19.869C77.5082 19.5757 77.1378 19.429 76.6685 19.429C76.1992 19.429 75.8252 19.5757 75.5465 19.869C75.2752 20.155 75.1395 20.5693 75.1395 21.112V24.5H73.8965V21.112C73.8965 20.5693 73.7608 20.155 73.4895 19.869C73.2182 19.5757 72.8478 19.429 72.3785 19.429C71.9092 19.429 71.5352 19.5757 71.2565 19.869C70.9852 20.155 70.8495 20.5693 70.8495 21.112V24.5H69.5955V18.439H70.8495V19.132C71.0548 18.8827 71.3152 18.6883 71.6305 18.549C71.9458 18.4097 72.2832 18.34 72.6425 18.34C73.1265 18.34 73.5592 18.4427 73.9405 18.648C74.3218 18.8533 74.6152 19.1503 74.8205 19.539C75.0038 19.1723 75.2898 18.8827 75.6785 18.67C76.0672 18.45 76.4852 18.34 76.9325 18.34ZM86.5802 21.321C86.5802 21.5483 86.5655 21.7537 86.5362 21.937H81.9052C81.9419 22.421 82.1215 22.8097 82.4442 23.103C82.7669 23.3963 83.1629 23.543 83.6322 23.543C84.3069 23.543 84.7835 23.2607 85.0622 22.696H86.4152C86.2319 23.2533 85.8982 23.7117 85.4142 24.071C84.9375 24.423 84.3435 24.599 83.6322 24.599C83.0529 24.599 82.5322 24.4707 82.0702 24.214C81.6155 23.95 81.2562 23.5833 80.9922 23.114C80.7355 22.6373 80.6072 22.0873 80.6072 21.464C80.6072 20.8407 80.7319 20.2943 80.9812 19.825C81.2379 19.3483 81.5935 18.9817 82.0482 18.725C82.5102 18.4683 83.0382 18.34 83.6322 18.34C84.2042 18.34 84.7139 18.4647 85.1612 18.714C85.6085 18.9633 85.9569 19.3153 86.2062 19.77C86.4555 20.2173 86.5802 20.7343 86.5802 21.321ZM85.2712 20.925C85.2639 20.463 85.0989 20.0927 84.7762 19.814C84.4535 19.5353 84.0539 19.396 83.5772 19.396C83.1445 19.396 82.7742 19.5353 82.4662 19.814C82.1582 20.0853 81.9749 20.4557 81.9162 20.925H85.2712Z" fill="white"/>
</svg>
