<svg width="42" height="42" viewBox="0 0 42 42" fill="none" xmlns="http://www.w3.org/2000/svg">
<path d="M0 7C0 3.13401 3.13401 0 7 0H35C38.866 0 42 3.13401 42 7V35C42 38.866 38.866 42 35 42H7C3.13401 42 0 38.866 0 35V7Z" fill="#4A4895"/>
<path fill-rule="evenodd" clip-rule="evenodd" d="M12.91 11.05V31.22L29.36 30.94L28.84 16.03L27.1 13.7L23.43 10.61L12.91 11.05Z" fill="white"/>
<path fill-rule="evenodd" clip-rule="evenodd" d="M12 11.5C12.0026 11.3004 12.0445 11.1033 12.1233 10.9198C12.2021 10.7364 12.3163 10.5703 12.4593 10.431C12.6023 10.2917 12.7714 10.182 12.9568 10.108C13.1422 10.0341 13.3404 9.99737 13.54 10H23.91L29.82 15.85V30.5C29.8174 30.6996 29.7755 30.8968 29.6967 31.0802C29.6179 31.2636 29.5037 31.4297 29.3607 31.569C29.2177 31.7083 29.0487 31.818 28.8632 31.892C28.6778 31.966 28.4796 32.0027 28.28 32H13.54C13.3404 32.0027 13.1422 31.966 12.9568 31.892C12.7714 31.818 12.6023 31.7083 12.4593 31.569C12.3163 31.4297 12.2021 31.2636 12.1233 31.0802C12.0445 30.8968 12.0026 30.6996 12 30.5V11.5ZM13.54 11.42C13.5188 11.42 13.4984 11.4284 13.4834 11.4434C13.4684 11.4584 13.46 11.4788 13.46 11.5V30.5C13.46 30.5212 13.4684 30.5416 13.4834 30.5566C13.4984 30.5716 13.5188 30.58 13.54 30.58H28.28C28.3022 30.5801 28.3237 30.5721 28.3404 30.5573C28.357 30.5425 28.3675 30.5221 28.37 30.5V16.86H24.37C24.1704 16.8627 23.9722 16.826 23.7868 16.752C23.6014 16.678 23.4323 16.5683 23.2893 16.429C23.1463 16.2897 23.0321 16.1236 22.9533 15.9402C22.8745 15.7568 22.8326 15.5596 22.83 15.36V11.42H13.54ZM24.33 12.42L27.33 15.42H24.39C24.3704 15.4202 24.3514 15.4131 24.3367 15.4002C24.3219 15.3873 24.3125 15.3695 24.31 15.35L24.33 12.42Z" fill="white"/>
<path fill-rule="evenodd" clip-rule="evenodd" d="M22.85 15.36V10H23.91L24.33 10.42V15.26C24.33 15.37 24.33 15.43 24.48 15.43H29.37L29.82 15.86V16.86H24.5C24.2914 16.8779 24.0813 16.8525 23.883 16.7855C23.6847 16.7184 23.5024 16.6111 23.3474 16.4703C23.1925 16.3295 23.0684 16.1581 22.9828 15.9671C22.8972 15.776 22.852 15.5693 22.85 15.36Z" fill="#4A4895"/>
<path d="M25.7304 20H16.6445C16.2885 20 16 20.2885 16 20.6445C16 21.0005 16.2885 21.2891 16.6445 21.2891H25.7304C26.0864 21.2891 26.3749 21.0005 26.3749 20.6445C26.3749 20.2885 26.0864 20 25.7304 20Z" fill="#4A4895"/>
<path d="M16.6445 23.8672H24.0529C24.409 23.8672 24.6975 23.5787 24.6975 23.2227C24.6975 22.8667 24.409 22.5781 24.0529 22.5781H16.6445C16.2885 22.5781 16 22.8667 16 23.2227C16 23.5787 16.2885 23.8672 16.6445 23.8672Z" fill="#4A4895"/>
<path d="M24.9467 25.1562H16.6445C16.2885 25.1562 16 25.4448 16 25.8008C16 26.1568 16.2885 26.4453 16.6445 26.4453H24.9467C25.3026 26.4453 25.5913 26.1568 25.5913 25.8008C25.5913 25.4448 25.3026 25.1562 24.9467 25.1562Z" fill="#4A4895"/>
</svg>
