<svg width="210" height="42" viewBox="0 0 210 42" fill="none" xmlns="http://www.w3.org/2000/svg">
<path d="M0 7C0 3.13401 3.13401 0 7 0H203C206.866 0 210 3.13401 210 7V35C210 38.866 206.866 42 203 42H7.00001C3.13401 42 0 38.866 0 35V7Z" fill="#4A4895"/>
<path fill-rule="evenodd" clip-rule="evenodd" d="M17.91 11.05V31.22L34.36 30.94L33.84 16.03L32.1 13.7L28.43 10.61L17.91 11.05Z" fill="white"/>
<path fill-rule="evenodd" clip-rule="evenodd" d="M17 11.5C17.0026 11.3004 17.0445 11.1033 17.1233 10.9198C17.2021 10.7364 17.3163 10.5703 17.4593 10.431C17.6023 10.2917 17.7714 10.182 17.9568 10.108C18.1422 10.0341 18.3404 9.99737 18.54 10H28.91L34.82 15.85V30.5C34.8174 30.6996 34.7755 30.8968 34.6967 31.0802C34.6179 31.2636 34.5037 31.4297 34.3607 31.569C34.2177 31.7083 34.0487 31.818 33.8632 31.892C33.6778 31.966 33.4796 32.0027 33.28 32H18.54C18.3404 32.0027 18.1422 31.966 17.9568 31.892C17.7714 31.818 17.6023 31.7083 17.4593 31.569C17.3163 31.4297 17.2021 31.2636 17.1233 31.0802C17.0445 30.8968 17.0026 30.6996 17 30.5V11.5ZM18.54 11.42C18.5188 11.42 18.4984 11.4284 18.4834 11.4434C18.4684 11.4584 18.46 11.4788 18.46 11.5V30.5C18.46 30.5212 18.4684 30.5416 18.4834 30.5566C18.4984 30.5716 18.5188 30.58 18.54 30.58H33.28C33.3022 30.5801 33.3237 30.5721 33.3404 30.5573C33.357 30.5425 33.3675 30.5221 33.37 30.5V16.86H29.37C29.1704 16.8627 28.9722 16.826 28.7868 16.752C28.6014 16.678 28.4323 16.5683 28.2893 16.429C28.1463 16.2897 28.0321 16.1236 27.9533 15.9402C27.8745 15.7568 27.8326 15.5596 27.83 15.36V11.42H18.54ZM29.33 12.42L32.33 15.42H29.39C29.3704 15.4202 29.3514 15.4131 29.3367 15.4002C29.3219 15.3873 29.3125 15.3695 29.31 15.35L29.33 12.42Z" fill="white"/>
<path fill-rule="evenodd" clip-rule="evenodd" d="M25.91 18C25.994 17.9973 26.0778 18.0112 26.1565 18.041C26.2352 18.0707 26.3072 18.1156 26.3685 18.1732C26.4298 18.2308 26.4791 18.2999 26.5137 18.3765C26.5483 18.4532 26.5674 18.5359 26.57 18.62V23.62L28.45 21.82C28.576 21.7019 28.7423 21.6361 28.915 21.6361C29.0877 21.6361 29.254 21.7019 29.38 21.82C29.4419 21.8753 29.4915 21.9431 29.5254 22.019C29.5594 22.0948 29.5769 22.1769 29.5769 22.26C29.5769 22.3431 29.5594 22.4252 29.5254 22.501C29.4915 22.5768 29.4419 22.6446 29.38 22.7L25.91 26L22.43 22.65C22.3694 22.5938 22.3211 22.5258 22.288 22.45C22.255 22.3743 22.2379 22.2926 22.2379 22.21C22.2379 22.1274 22.255 22.0457 22.288 21.9699C22.3211 21.8942 22.3694 21.8262 22.43 21.77C22.5577 21.6512 22.7256 21.5852 22.9 21.5852C23.0744 21.5852 23.2423 21.6512 23.37 21.77L25.24 23.57V18.57C25.2599 18.4083 25.3398 18.26 25.4639 18.1544C25.588 18.0489 25.7472 17.9938 25.91 18Z" fill="#4A4895"/>
<path fill-rule="evenodd" clip-rule="evenodd" d="M27.85 15.36V10H28.91L29.33 10.42V15.26C29.33 15.37 29.33 15.43 29.48 15.43H34.37L34.82 15.86V16.86H29.5C29.2914 16.8779 29.0813 16.8525 28.883 16.7855C28.6847 16.7184 28.5024 16.6111 28.3474 16.4703C28.1925 16.3295 28.0684 16.1581 27.9828 15.9671C27.8972 15.776 27.852 15.5693 27.85 15.36Z" fill="#4A4895"/>
<path d="M62.877 16.855V24.5H61.623V19.264L59.291 24.5H58.422L56.079 19.264V24.5H54.825V16.855H56.178L58.862 22.85L61.535 16.855H62.877ZM69.9812 18.439L66.2632 27.349H64.9652L66.1972 24.401L63.8102 18.439H65.2072L66.9122 23.059L68.6832 18.439H69.9812ZM73.367 21.442C73.367 20.8333 73.4916 20.2943 73.741 19.825C73.9976 19.3557 74.3423 18.9927 74.775 18.736C75.215 18.472 75.7026 18.34 76.238 18.34C76.634 18.34 77.0226 18.428 77.404 18.604C77.7926 18.7727 78.1006 19 78.328 19.286V16.36H79.593V24.5H78.328V23.587C78.1226 23.8803 77.8366 24.1223 77.47 24.313C77.1106 24.5037 76.6963 24.599 76.227 24.599C75.699 24.599 75.215 24.467 74.775 24.203C74.3423 23.9317 73.9976 23.5577 73.741 23.081C73.4916 22.597 73.367 22.0507 73.367 21.442ZM78.328 21.464C78.328 21.046 78.24 20.683 78.064 20.375C77.8953 20.067 77.6716 19.8323 77.393 19.671C77.1143 19.5097 76.8136 19.429 76.491 19.429C76.1683 19.429 75.8676 19.5097 75.589 19.671C75.3103 19.825 75.083 20.056 74.907 20.364C74.7383 20.6647 74.654 21.024 74.654 21.442C74.654 21.86 74.7383 22.2267 74.907 22.542C75.083 22.8573 75.3103 23.0993 75.589 23.268C75.875 23.4293 76.1756 23.51 76.491 23.51C76.8136 23.51 77.1143 23.4293 77.393 23.268C77.6716 23.1067 77.8953 22.872 78.064 22.564C78.24 22.2487 78.328 21.882 78.328 21.464ZM83.869 24.599C83.297 24.599 82.78 24.4707 82.318 24.214C81.856 23.95 81.493 23.5833 81.229 23.114C80.965 22.6373 80.833 22.0873 80.833 21.464C80.833 20.848 80.9687 20.3017 81.24 19.825C81.5114 19.3483 81.8817 18.9817 82.351 18.725C82.8204 18.4683 83.3447 18.34 83.924 18.34C84.5034 18.34 85.0277 18.4683 85.497 18.725C85.9664 18.9817 86.3367 19.3483 86.608 19.825C86.8794 20.3017 87.015 20.848 87.015 21.464C87.015 22.08 86.8757 22.6263 86.597 23.103C86.3184 23.5797 85.937 23.95 85.453 24.214C84.9764 24.4707 84.4484 24.599 83.869 24.599ZM83.869 23.51C84.1917 23.51 84.4924 23.433 84.771 23.279C85.057 23.125 85.288 22.894 85.464 22.586C85.64 22.278 85.728 21.904 85.728 21.464C85.728 21.024 85.6437 20.6537 85.475 20.353C85.3064 20.045 85.0827 19.814 84.804 19.66C84.5254 19.506 84.2247 19.429 83.902 19.429C83.5794 19.429 83.2787 19.506 83 19.66C82.7287 19.814 82.5124 20.045 82.351 20.353C82.1897 20.6537 82.109 21.024 82.109 21.464C82.109 22.1167 82.274 22.6227 82.604 22.982C82.9414 23.334 83.363 23.51 83.869 23.51ZM96.3947 18.439L94.5137 24.5H93.1937L91.9727 20.023L90.7517 24.5H89.4317L87.5397 18.439H88.8157L90.0807 23.312L91.3677 18.439H92.6767L93.9087 23.29L95.1627 18.439H96.3947ZM100.39 18.34C100.867 18.34 101.292 18.439 101.666 18.637C102.047 18.835 102.344 19.1283 102.557 19.517C102.77 19.9057 102.876 20.375 102.876 20.925V24.5H101.633V21.112C101.633 20.5693 101.497 20.155 101.226 19.869C100.955 19.5757 100.584 19.429 100.115 19.429C99.6455 19.429 99.2715 19.5757 98.9928 19.869C98.7215 20.155 98.5858 20.5693 98.5858 21.112V24.5H97.3318V18.439H98.5858V19.132C98.7912 18.8827 99.0515 18.6883 99.3668 18.549C99.6895 18.4097 100.031 18.34 100.39 18.34ZM105.729 16.36V24.5H104.475V16.36H105.729ZM110.005 24.599C109.433 24.599 108.916 24.4707 108.454 24.214C107.992 23.95 107.629 23.5833 107.365 23.114C107.101 22.6373 106.969 22.0873 106.969 21.464C106.969 20.848 107.104 20.3017 107.376 19.825C107.647 19.3483 108.017 18.9817 108.487 18.725C108.956 18.4683 109.48 18.34 110.06 18.34C110.639 18.34 111.163 18.4683 111.633 18.725C112.102 18.9817 112.472 19.3483 112.744 19.825C113.015 20.3017 113.151 20.848 113.151 21.464C113.151 22.08 113.011 22.6263 112.733 23.103C112.454 23.5797 112.073 23.95 111.589 24.214C111.112 24.4707 110.584 24.599 110.005 24.599ZM110.005 23.51C110.327 23.51 110.628 23.433 110.907 23.279C111.193 23.125 111.424 22.894 111.6 22.586C111.776 22.278 111.864 21.904 111.864 21.464C111.864 21.024 111.779 20.6537 111.611 20.353C111.442 20.045 111.218 19.814 110.94 19.66C110.661 19.506 110.36 19.429 110.038 19.429C109.715 19.429 109.414 19.506 109.136 19.66C108.864 19.814 108.648 20.045 108.487 20.353C108.325 20.6537 108.245 21.024 108.245 21.464C108.245 22.1167 108.41 22.6227 108.74 22.982C109.077 23.334 109.499 23.51 110.005 23.51ZM113.972 21.442C113.972 20.8333 114.097 20.2943 114.346 19.825C114.603 19.3557 114.948 18.9927 115.38 18.736C115.82 18.472 116.304 18.34 116.832 18.34C117.309 18.34 117.723 18.4353 118.075 18.626C118.435 18.8093 118.721 19.0403 118.933 19.319V18.439H120.198V24.5H118.933V23.598C118.721 23.884 118.431 24.1223 118.064 24.313C117.698 24.5037 117.28 24.599 116.81 24.599C116.29 24.599 115.813 24.467 115.38 24.203C114.948 23.9317 114.603 23.5577 114.346 23.081C114.097 22.597 113.972 22.0507 113.972 21.442ZM118.933 21.464C118.933 21.046 118.845 20.683 118.669 20.375C118.501 20.067 118.277 19.8323 117.998 19.671C117.72 19.5097 117.419 19.429 117.096 19.429C116.774 19.429 116.473 19.5097 116.194 19.671C115.916 19.825 115.688 20.056 115.512 20.364C115.344 20.6647 115.259 21.024 115.259 21.442C115.259 21.86 115.344 22.2267 115.512 22.542C115.688 22.8573 115.916 23.0993 116.194 23.268C116.48 23.4293 116.781 23.51 117.096 23.51C117.419 23.51 117.72 23.4293 117.998 23.268C118.277 23.1067 118.501 22.872 118.669 22.564C118.845 22.2487 118.933 21.882 118.933 21.464ZM121.428 21.442C121.428 20.8333 121.552 20.2943 121.802 19.825C122.058 19.3557 122.403 18.9927 122.836 18.736C123.276 18.472 123.763 18.34 124.299 18.34C124.695 18.34 125.083 18.428 125.465 18.604C125.853 18.7727 126.161 19 126.389 19.286V16.36H127.654V24.5H126.389V23.587C126.183 23.8803 125.897 24.1223 125.531 24.313C125.171 24.5037 124.757 24.599 124.288 24.599C123.76 24.599 123.276 24.467 122.836 24.203C122.403 23.9317 122.058 23.5577 121.802 23.081C121.552 22.597 121.428 22.0507 121.428 21.442ZM126.389 21.464C126.389 21.046 126.301 20.683 126.125 20.375C125.956 20.067 125.732 19.8323 125.454 19.671C125.175 19.5097 124.874 19.429 124.552 19.429C124.229 19.429 123.928 19.5097 123.65 19.671C123.371 19.825 123.144 20.056 122.968 20.364C122.799 20.6647 122.715 21.024 122.715 21.442C122.715 21.86 122.799 22.2267 122.968 22.542C123.144 22.8573 123.371 23.0993 123.65 23.268C123.936 23.4293 124.236 23.51 124.552 23.51C124.874 23.51 125.175 23.4293 125.454 23.268C125.732 23.1067 125.956 22.872 126.125 22.564C126.301 22.2487 126.389 21.882 126.389 21.464ZM131.501 24.599C131.024 24.599 130.595 24.5147 130.214 24.346C129.84 24.17 129.543 23.9353 129.323 23.642C129.103 23.3413 128.985 23.0077 128.971 22.641H130.269C130.291 22.8977 130.412 23.114 130.632 23.29C130.859 23.4587 131.141 23.543 131.479 23.543C131.831 23.543 132.102 23.477 132.293 23.345C132.491 23.2057 132.59 23.0297 132.59 22.817C132.59 22.5897 132.48 22.421 132.26 22.311C132.047 22.201 131.706 22.08 131.237 21.948C130.782 21.8233 130.412 21.7023 130.126 21.585C129.84 21.4677 129.59 21.288 129.378 21.046C129.172 20.804 129.07 20.485 129.07 20.089C129.07 19.7663 129.165 19.473 129.356 19.209C129.546 18.9377 129.818 18.725 130.17 18.571C130.529 18.417 130.94 18.34 131.402 18.34C132.091 18.34 132.645 18.516 133.063 18.868C133.488 19.2127 133.715 19.6857 133.745 20.287H132.491C132.469 20.0157 132.359 19.7993 132.161 19.638C131.963 19.4767 131.695 19.396 131.358 19.396C131.028 19.396 130.775 19.4583 130.599 19.583C130.423 19.7077 130.335 19.8727 130.335 20.078C130.335 20.2393 130.393 20.375 130.511 20.485C130.628 20.595 130.771 20.683 130.94 20.749C131.108 20.8077 131.358 20.8847 131.688 20.98C132.128 21.0973 132.487 21.2183 132.766 21.343C133.052 21.4603 133.297 21.6363 133.503 21.871C133.708 22.1057 133.814 22.4173 133.822 22.806C133.822 23.1507 133.726 23.4587 133.536 23.73C133.345 24.0013 133.074 24.214 132.722 24.368C132.377 24.522 131.97 24.599 131.501 24.599Z" fill="white"/>
</svg>
