<svg width="210" height="42" viewBox="0 0 210 42" fill="none" xmlns="http://www.w3.org/2000/svg">
<path d="M0 7C0 3.13401 3.13401 0 7 0H203C206.866 0 210 3.13401 210 7V35C210 38.866 206.866 42 203 42H7.00001C3.13401 42 0 38.866 0 35V7Z" fill="#4A4895"/>
<path d="M23.5 12.5L22 13.5L20 12.5L17.5 14.5L18.5 16.5L18 18L16 19L15.5 22.5L17.5 23.5L18.5 25L17.5 27L20 29.5L22 28.5L23.5 29.5L24 31L28 31.5V29.5L30 28.5L32 29.5L34.5 27L33.5 25.5L34 23.5L36.5 22.5L36 19.5L34.5 19L33.5 17L34.5 15L32 12.5L30.5 13.5L29 13L28 11H24.5L23.5 12.5Z" fill="white"/>
<path fill-rule="evenodd" clip-rule="evenodd" d="M23.5867 10H28.3999L28.9722 12.1429L30.1446 12.6563L32.1015 11.5181L35.4526 14.8846L34.2619 16.8089L34.7756 18.0534L37 18.5731V23.3539L34.7887 23.9738L34.3103 25.1754L35.5074 27.0055L32.1013 30.4895L30.1796 29.3416L28.9326 29.861L28.4133 32H23.5867L23.0674 29.861L21.8256 29.3437L19.9555 30.4918L16.4896 27.01L17.6842 25.1838L17.1685 23.9648L15 23.2905V18.6235L17.1726 18.1039L17.693 16.8122L16.5003 14.8846L19.8514 11.5181L21.8155 12.6605L23.0674 12.139L23.5867 10ZM24.7399 11.4667L24.3173 13.2072L21.7074 14.2943L20.0924 13.355L18.3572 15.0982L19.3308 16.6717L18.2501 19.3542L16.4667 19.7808V22.2106L18.2541 22.7664L19.3396 25.3324L18.3679 26.8179L20.1766 28.635L21.6973 27.7015L24.3173 28.7928L24.7399 30.5333H27.2601L27.6827 28.7928L30.2975 27.7036L31.8608 28.6374L33.6351 26.8225L32.6658 25.3407L33.6944 22.7574L35.5333 22.2418V19.7366L33.7076 19.31L32.62 16.675L33.5957 15.0982L31.8605 13.355L30.2383 14.2985L27.7373 13.2033L27.2735 11.4667H24.7399Z" fill="white"/>
<path d="M26 25C28.2091 25 30 23.2091 30 21C30 18.7909 28.2091 17 26 17C23.7909 17 22 18.7909 22 21C22 23.2091 23.7909 25 26 25Z" fill="#4A4895"/>
<path d="M57.344 24.577C56.8307 24.577 56.3687 24.489 55.958 24.313C55.5473 24.1297 55.2247 23.873 54.99 23.543C54.7553 23.213 54.638 22.828 54.638 22.388H55.98C56.0093 22.718 56.1377 22.9893 56.365 23.202C56.5997 23.4147 56.926 23.521 57.344 23.521C57.7767 23.521 58.114 23.4183 58.356 23.213C58.598 23.0003 58.719 22.729 58.719 22.399C58.719 22.1423 58.642 21.9333 58.488 21.772C58.3413 21.6107 58.1543 21.486 57.927 21.398C57.707 21.31 57.399 21.2147 57.003 21.112C56.5043 20.98 56.0973 20.848 55.782 20.716C55.474 20.5767 55.21 20.364 54.99 20.078C54.77 19.792 54.66 19.4107 54.66 18.934C54.66 18.494 54.77 18.109 54.99 17.779C55.21 17.449 55.518 17.196 55.914 17.02C56.31 16.844 56.7683 16.756 57.289 16.756C58.0297 16.756 58.6347 16.943 59.104 17.317C59.5807 17.6837 59.8447 18.1897 59.896 18.835H58.51C58.488 18.5563 58.356 18.318 58.114 18.12C57.872 17.922 57.553 17.823 57.157 17.823C56.7977 17.823 56.5043 17.9147 56.277 18.098C56.0497 18.2813 55.936 18.5453 55.936 18.89C55.936 19.1247 56.0057 19.319 56.145 19.473C56.2917 19.6197 56.475 19.737 56.695 19.825C56.915 19.913 57.2157 20.0083 57.597 20.111C58.103 20.2503 58.5137 20.3897 58.829 20.529C59.1517 20.6683 59.423 20.8847 59.643 21.178C59.8703 21.464 59.984 21.849 59.984 22.333C59.984 22.7217 59.8777 23.0883 59.665 23.433C59.4597 23.7777 59.1553 24.0563 58.752 24.269C58.356 24.4743 57.8867 24.577 57.344 24.577ZM67.0187 21.321C67.0187 21.5483 67.004 21.7537 66.9747 21.937H62.3437C62.3803 22.421 62.56 22.8097 62.8827 23.103C63.2053 23.3963 63.6013 23.543 64.0707 23.543C64.7453 23.543 65.222 23.2607 65.5007 22.696H66.8537C66.6703 23.2533 66.3367 23.7117 65.8527 24.071C65.376 24.423 64.782 24.599 64.0707 24.599C63.4913 24.599 62.9707 24.4707 62.5087 24.214C62.054 23.95 61.6947 23.5833 61.4307 23.114C61.174 22.6373 61.0457 22.0873 61.0457 21.464C61.0457 20.8407 61.1703 20.2943 61.4197 19.825C61.6763 19.3483 62.032 18.9817 62.4867 18.725C62.9487 18.4683 63.4767 18.34 64.0707 18.34C64.6427 18.34 65.1523 18.4647 65.5997 18.714C66.047 18.9633 66.3953 19.3153 66.6447 19.77C66.894 20.2173 67.0187 20.7343 67.0187 21.321ZM65.7097 20.925C65.7023 20.463 65.5373 20.0927 65.2147 19.814C64.892 19.5353 64.4923 19.396 64.0157 19.396C63.583 19.396 63.2127 19.5353 62.9047 19.814C62.5967 20.0853 62.4133 20.4557 62.3547 20.925H65.7097ZM69.7157 19.462V22.817C69.7157 23.0443 69.7671 23.2093 69.8697 23.312C69.9797 23.4073 70.1631 23.455 70.4197 23.455H71.1897V24.5H70.1997C69.6351 24.5 69.2024 24.368 68.9017 24.104C68.6011 23.84 68.4507 23.411 68.4507 22.817V19.462H67.7357V18.439H68.4507V16.932H69.7157V18.439H71.1897V19.462H69.7157ZM73.8085 19.462V22.817C73.8085 23.0443 73.8598 23.2093 73.9625 23.312C74.0725 23.4073 74.2558 23.455 74.5125 23.455H75.2825V24.5H74.2925C73.7278 24.5 73.2952 24.368 72.9945 24.104C72.6938 23.84 72.5435 23.411 72.5435 22.817V19.462H71.8285V18.439H72.5435V16.932H73.8085V18.439H75.2825V19.462H73.8085ZM77.0763 17.636C76.8489 17.636 76.6583 17.559 76.5043 17.405C76.3503 17.251 76.2733 17.0603 76.2733 16.833C76.2733 16.6057 76.3503 16.415 76.5043 16.261C76.6583 16.107 76.8489 16.03 77.0763 16.03C77.2963 16.03 77.4833 16.107 77.6373 16.261C77.7913 16.415 77.8683 16.6057 77.8683 16.833C77.8683 17.0603 77.7913 17.251 77.6373 17.405C77.4833 17.559 77.2963 17.636 77.0763 17.636ZM77.6923 18.439V24.5H76.4383V18.439H77.6923ZM82.3967 18.34C82.8733 18.34 83.2987 18.439 83.6727 18.637C84.054 18.835 84.351 19.1283 84.5637 19.517C84.7763 19.9057 84.8827 20.375 84.8827 20.925V24.5H83.6397V21.112C83.6397 20.5693 83.504 20.155 83.2327 19.869C82.9613 19.5757 82.591 19.429 82.1217 19.429C81.6523 19.429 81.2783 19.5757 80.9997 19.869C80.7283 20.155 80.5927 20.5693 80.5927 21.112V24.5H79.3387V18.439H80.5927V19.132C80.798 18.8827 81.0583 18.6883 81.3737 18.549C81.6963 18.4097 82.0373 18.34 82.3967 18.34ZM88.9242 18.34C89.3936 18.34 89.8079 18.4353 90.1672 18.626C90.5339 18.8093 90.8199 19.0403 91.0252 19.319V18.439H92.2902V24.599C92.2902 25.1563 92.1729 25.6513 91.9382 26.084C91.7036 26.524 91.3626 26.8687 90.9152 27.118C90.4752 27.3673 89.9472 27.492 89.3312 27.492C88.5099 27.492 87.8279 27.2977 87.2852 26.909C86.7426 26.5277 86.4346 26.007 86.3612 25.347H87.6042C87.6996 25.6623 87.9012 25.9153 88.2092 26.106C88.5246 26.304 88.8986 26.403 89.3312 26.403C89.8372 26.403 90.2442 26.249 90.5522 25.941C90.8676 25.633 91.0252 25.1857 91.0252 24.599V23.587C90.8126 23.873 90.5229 24.115 90.1562 24.313C89.7969 24.5037 89.3862 24.599 88.9242 24.599C88.3962 24.599 87.9122 24.467 87.4722 24.203C87.0396 23.9317 86.6949 23.5577 86.4382 23.081C86.1889 22.597 86.0642 22.0507 86.0642 21.442C86.0642 20.8333 86.1889 20.2943 86.4382 19.825C86.6949 19.3557 87.0396 18.9927 87.4722 18.736C87.9122 18.472 88.3962 18.34 88.9242 18.34ZM91.0252 21.464C91.0252 21.046 90.9372 20.683 90.7612 20.375C90.5926 20.067 90.3689 19.8323 90.0902 19.671C89.8116 19.5097 89.5109 19.429 89.1882 19.429C88.8656 19.429 88.5649 19.5097 88.2862 19.671C88.0076 19.825 87.7802 20.056 87.6042 20.364C87.4356 20.6647 87.3512 21.024 87.3512 21.442C87.3512 21.86 87.4356 22.2267 87.6042 22.542C87.7802 22.8573 88.0076 23.0993 88.2862 23.268C88.5722 23.4293 88.8729 23.51 89.1882 23.51C89.5109 23.51 89.8116 23.4293 90.0902 23.268C90.3689 23.1067 90.5926 22.872 90.7612 22.564C90.9372 22.2487 91.0252 21.882 91.0252 21.464ZM96.1373 24.599C95.6606 24.599 95.2316 24.5147 94.8503 24.346C94.4763 24.17 94.1793 23.9353 93.9593 23.642C93.7393 23.3413 93.622 23.0077 93.6073 22.641H94.9053C94.9273 22.8977 95.0483 23.114 95.2683 23.29C95.4956 23.4587 95.778 23.543 96.1153 23.543C96.4673 23.543 96.7386 23.477 96.9293 23.345C97.1273 23.2057 97.2263 23.0297 97.2263 22.817C97.2263 22.5897 97.1163 22.421 96.8963 22.311C96.6836 22.201 96.3426 22.08 95.8733 21.948C95.4186 21.8233 95.0483 21.7023 94.7623 21.585C94.4763 21.4677 94.227 21.288 94.0143 21.046C93.809 20.804 93.7063 20.485 93.7063 20.089C93.7063 19.7663 93.8016 19.473 93.9923 19.209C94.183 18.9377 94.4543 18.725 94.8063 18.571C95.1656 18.417 95.5763 18.34 96.0383 18.34C96.7276 18.34 97.2813 18.516 97.6993 18.868C98.1246 19.2127 98.352 19.6857 98.3813 20.287H97.1273C97.1053 20.0157 96.9953 19.7993 96.7973 19.638C96.5993 19.4767 96.3316 19.396 95.9943 19.396C95.6643 19.396 95.4113 19.4583 95.2353 19.583C95.0593 19.7077 94.9713 19.8727 94.9713 20.078C94.9713 20.2393 95.03 20.375 95.1473 20.485C95.2646 20.595 95.4076 20.683 95.5763 20.749C95.745 20.8077 95.9943 20.8847 96.3243 20.98C96.7643 21.0973 97.1236 21.2183 97.4023 21.343C97.6883 21.4603 97.934 21.6363 98.1393 21.871C98.3446 22.1057 98.451 22.4173 98.4583 22.806C98.4583 23.1507 98.363 23.4587 98.1723 23.73C97.9816 24.0013 97.7103 24.214 97.3583 24.368C97.0136 24.522 96.6066 24.599 96.1373 24.599Z" fill="white"/>
</svg>
