<svg width="42" height="42" viewBox="0 0 42 42" fill="none" xmlns="http://www.w3.org/2000/svg">
<path d="M0 7C0 3.13401 3.13401 0 7 0H35C38.866 0 42 3.13401 42 7V35C42 38.866 38.866 42 35 42H7C3.13401 42 0 38.866 0 35V7Z" fill="#4A4895"/>
<path d="M18.5 12.5L17 13.5L15 12.5L12.5 14.5L13.5 16.5L13 18L11 19L10.5 22.5L12.5 23.5L13.5 25L12.5 27L15 29.5L17 28.5L18.5 29.5L19 31L23 31.5V29.5L25 28.5L27 29.5L29.5 27L28.5 25.5L29 23.5L31.5 22.5L31 19.5L29.5 19L28.5 17L29.5 15L27 12.5L25.5 13.5L24 13L23 11H19.5L18.5 12.5Z" fill="white"/>
<path fill-rule="evenodd" clip-rule="evenodd" d="M18.5867 10H23.3999L23.9722 12.1429L25.1446 12.6563L27.1015 11.5181L30.4526 14.8846L29.2619 16.8089L29.7756 18.0534L32 18.5731V23.3539L29.7887 23.9738L29.3103 25.1754L30.5074 27.0055L27.1013 30.4895L25.1796 29.3416L23.9326 29.861L23.4133 32H18.5867L18.0674 29.861L16.8256 29.3437L14.9555 30.4918L11.4896 27.01L12.6842 25.1838L12.1685 23.9648L10 23.2905V18.6235L12.1726 18.1039L12.693 16.8122L11.5003 14.8846L14.8514 11.5181L16.8155 12.6605L18.0674 12.139L18.5867 10ZM19.7399 11.4667L19.3173 13.2072L16.7074 14.2943L15.0924 13.355L13.3572 15.0982L14.3308 16.6717L13.2501 19.3542L11.4667 19.7808V22.2106L13.2541 22.7664L14.3396 25.3324L13.3679 26.8179L15.1766 28.635L16.6973 27.7015L19.3173 28.7928L19.7399 30.5333H22.2601L22.6827 28.7928L25.2975 27.7036L26.8608 28.6374L28.6351 26.8225L27.6658 25.3407L28.6944 22.7574L30.5333 22.2418V19.7366L28.7076 19.31L27.62 16.675L28.5957 15.0982L26.8605 13.355L25.2383 14.2985L22.7373 13.2033L22.2735 11.4667H19.7399Z" fill="white"/>
<path d="M21 25C23.2091 25 25 23.2091 25 21C25 18.7909 23.2091 17 21 17C18.7909 17 17 18.7909 17 21C17 23.2091 18.7909 25 21 25Z" fill="#4A4895"/>
</svg>
