<svg width="210" height="42" viewBox="0 0 210 42" fill="none" xmlns="http://www.w3.org/2000/svg">
<path d="M0 7C0 3.13401 3.13401 0 7 0H203C206.866 0 210 3.13401 210 7V35C210 38.866 206.866 42 203 42H7.00001C3.13401 42 0 38.866 0 35V7Z" fill="#4A4895"/>
<path d="M16 15.32L24.03 10.8C24.4609 10.5591 24.9463 10.4327 25.44 10.4327C25.9337 10.4327 26.4191 10.5591 26.85 10.8L30.27 12.68L35.1 15.34V24.24C35.0941 24.7637 34.947 25.276 34.6742 25.7231C34.4014 26.1701 34.013 26.5353 33.55 26.78L25.42 31.17L17.55 26.79C17.0955 26.537 16.7169 26.1673 16.4532 25.719C16.1894 25.2707 16.0503 24.7601 16.05 24.24L16 15.32Z" fill="white"/>
<path fill-rule="evenodd" clip-rule="evenodd" d="M26.74 11.53C26.3502 11.2965 25.9044 11.1731 25.45 11.1731C24.9956 11.1731 24.5498 11.2965 24.16 11.53L17.72 15.42L21.02 17.42L28.83 12.73L26.74 11.53ZM29.98 13.44L22.15 18.15L25.45 20.15L33.36 15.39L29.98 13.44ZM33.93 16.44L26.03 21.18V30.28L32.65 26.46C33.0388 26.2367 33.3619 25.9148 33.5866 25.5268C33.8113 25.1388 33.9298 24.6984 33.93 24.25V16.44ZM24.86 30.29V21.2L17.17 16.47V24.29C17.1699 24.7347 17.2862 25.1718 17.5072 25.5577C17.7282 25.9436 18.0464 26.265 18.43 26.49L24.86 30.29ZM23.55 10.53C24.1196 10.189 24.7711 10.0089 25.435 10.0089C26.0989 10.0089 26.7504 10.189 27.32 10.53L35.09 15.1V24.29C35.0912 24.9469 34.9189 25.5924 34.5905 26.1614C34.2622 26.7303 33.7894 27.2024 33.22 27.53L25.44 32L17.84 27.51C17.2798 27.1796 16.8154 26.7088 16.4928 26.1441C16.1701 25.5794 16.0002 24.9404 16 24.29V15.08L23.55 10.53Z" fill="white"/>
<path fill-rule="evenodd" clip-rule="evenodd" d="M21.75 18.05L30.55 12.39L29.31 11.66L20.67 17.37L16.55 14.77L16.03 15.08V15.6L25.11 21.37V31.79L25.47 32L26.11 31.63V21.37L35.11 15.6V15.08L34.55 14.78L25.55 20.45L21.75 18.05Z" fill="#4A4895"/>
<path d="M58.312 24.577C57.6007 24.577 56.9443 24.412 56.343 24.082C55.749 23.7447 55.276 23.279 54.924 22.685C54.5793 22.0837 54.407 21.409 54.407 20.661C54.407 19.913 54.5793 19.242 54.924 18.648C55.276 18.054 55.749 17.592 56.343 17.262C56.9443 16.9247 57.6007 16.756 58.312 16.756C59.0307 16.756 59.687 16.9247 60.281 17.262C60.8823 17.592 61.3553 18.054 61.7 18.648C62.0447 19.242 62.217 19.913 62.217 20.661C62.217 21.409 62.0447 22.0837 61.7 22.685C61.3553 23.279 60.8823 23.7447 60.281 24.082C59.687 24.412 59.0307 24.577 58.312 24.577ZM58.312 23.488C58.818 23.488 59.269 23.3743 59.665 23.147C60.061 22.9123 60.369 22.5823 60.589 22.157C60.8163 21.7243 60.93 21.2257 60.93 20.661C60.93 20.0963 60.8163 19.6013 60.589 19.176C60.369 18.7507 60.061 18.4243 59.665 18.197C59.269 17.9697 58.818 17.856 58.312 17.856C57.806 17.856 57.355 17.9697 56.959 18.197C56.563 18.4243 56.2513 18.7507 56.024 19.176C55.804 19.6013 55.694 20.0963 55.694 20.661C55.694 21.2257 55.804 21.7243 56.024 22.157C56.2513 22.5823 56.563 22.9123 56.959 23.147C57.355 23.3743 57.806 23.488 58.312 23.488ZM64.705 19.319C64.8883 19.011 65.1303 18.7727 65.431 18.604C65.739 18.428 66.102 18.34 66.52 18.34V19.638H66.201C65.7096 19.638 65.3356 19.7627 65.079 20.012C64.8296 20.2613 64.705 20.694 64.705 21.31V24.5H63.451V18.439H64.705V19.319ZM67.2547 21.442C67.2547 20.8333 67.3793 20.2943 67.6287 19.825C67.8853 19.3557 68.23 18.9927 68.6627 18.736C69.1027 18.472 69.5903 18.34 70.1257 18.34C70.5217 18.34 70.9103 18.428 71.2917 18.604C71.6803 18.7727 71.9883 19 72.2157 19.286V16.36H73.4807V24.5H72.2157V23.587C72.0103 23.8803 71.7243 24.1223 71.3577 24.313C70.9983 24.5037 70.584 24.599 70.1147 24.599C69.5867 24.599 69.1027 24.467 68.6627 24.203C68.23 23.9317 67.8853 23.5577 67.6287 23.081C67.3793 22.597 67.2547 22.0507 67.2547 21.442ZM72.2157 21.464C72.2157 21.046 72.1277 20.683 71.9517 20.375C71.783 20.067 71.5593 19.8323 71.2807 19.671C71.002 19.5097 70.7013 19.429 70.3787 19.429C70.056 19.429 69.7553 19.5097 69.4767 19.671C69.198 19.825 68.9707 20.056 68.7947 20.364C68.626 20.6647 68.5417 21.024 68.5417 21.442C68.5417 21.86 68.626 22.2267 68.7947 22.542C68.9707 22.8573 69.198 23.0993 69.4767 23.268C69.7627 23.4293 70.0633 23.51 70.3787 23.51C70.7013 23.51 71.002 23.4293 71.2807 23.268C71.5593 23.1067 71.783 22.872 71.9517 22.564C72.1277 22.2487 72.2157 21.882 72.2157 21.464ZM80.6827 21.321C80.6827 21.5483 80.6681 21.7537 80.6387 21.937H76.0077C76.0444 22.421 76.2241 22.8097 76.5467 23.103C76.8694 23.3963 77.2654 23.543 77.7347 23.543C78.4094 23.543 78.8861 23.2607 79.1647 22.696H80.5177C80.3344 23.2533 80.0007 23.7117 79.5167 24.071C79.0401 24.423 78.4461 24.599 77.7347 24.599C77.1554 24.599 76.6347 24.4707 76.1727 24.214C75.7181 23.95 75.3587 23.5833 75.0947 23.114C74.8381 22.6373 74.7097 22.0873 74.7097 21.464C74.7097 20.8407 74.8344 20.2943 75.0837 19.825C75.3404 19.3483 75.6961 18.9817 76.1507 18.725C76.6127 18.4683 77.1407 18.34 77.7347 18.34C78.3067 18.34 78.8164 18.4647 79.2637 18.714C79.7111 18.9633 80.0594 19.3153 80.3087 19.77C80.5581 20.2173 80.6827 20.7343 80.6827 21.321ZM79.3737 20.925C79.3664 20.463 79.2014 20.0927 78.8787 19.814C78.5561 19.5353 78.1564 19.396 77.6797 19.396C77.2471 19.396 76.8767 19.5353 76.5687 19.814C76.2607 20.0853 76.0774 20.4557 76.0187 20.925H79.3737ZM83.1708 19.319C83.3541 19.011 83.5961 18.7727 83.8968 18.604C84.2048 18.428 84.5678 18.34 84.9858 18.34V19.638H84.6668C84.1755 19.638 83.8015 19.7627 83.5448 20.012C83.2955 20.2613 83.1708 20.694 83.1708 21.31V24.5H81.9168V18.439H83.1708V19.319ZM88.3385 24.599C87.8618 24.599 87.4328 24.5147 87.0515 24.346C86.6775 24.17 86.3805 23.9353 86.1605 23.642C85.9405 23.3413 85.8231 23.0077 85.8085 22.641H87.1065C87.1285 22.8977 87.2495 23.114 87.4695 23.29C87.6968 23.4587 87.9791 23.543 88.3165 23.543C88.6685 23.543 88.9398 23.477 89.1305 23.345C89.3285 23.2057 89.4275 23.0297 89.4275 22.817C89.4275 22.5897 89.3175 22.421 89.0975 22.311C88.8848 22.201 88.5438 22.08 88.0745 21.948C87.6198 21.8233 87.2495 21.7023 86.9635 21.585C86.6775 21.4677 86.4281 21.288 86.2155 21.046C86.0101 20.804 85.9075 20.485 85.9075 20.089C85.9075 19.7663 86.0028 19.473 86.1935 19.209C86.3841 18.9377 86.6555 18.725 87.0075 18.571C87.3668 18.417 87.7775 18.34 88.2395 18.34C88.9288 18.34 89.4825 18.516 89.9005 18.868C90.3258 19.2127 90.5531 19.6857 90.5825 20.287H89.3285C89.3065 20.0157 89.1965 19.7993 88.9985 19.638C88.8005 19.4767 88.5328 19.396 88.1955 19.396C87.8655 19.396 87.6125 19.4583 87.4365 19.583C87.2605 19.7077 87.1725 19.8727 87.1725 20.078C87.1725 20.2393 87.2311 20.375 87.3485 20.485C87.4658 20.595 87.6088 20.683 87.7775 20.749C87.9461 20.8077 88.1955 20.8847 88.5255 20.98C88.9655 21.0973 89.3248 21.2183 89.6035 21.343C89.8895 21.4603 90.1351 21.6363 90.3405 21.871C90.5458 22.1057 90.6521 22.4173 90.6595 22.806C90.6595 23.1507 90.5641 23.4587 90.3735 23.73C90.1828 24.0013 89.9115 24.214 89.5595 24.368C89.2148 24.522 88.8078 24.599 88.3385 24.599Z" fill="white"/>
</svg>
