<svg width="210" height="42" viewBox="0 0 210 42" fill="none" xmlns="http://www.w3.org/2000/svg">
<path d="M0 7C0 3.13401 3.13401 0 7 0H203C206.866 0 210 3.13401 210 7V35C210 38.866 206.866 42 203 42H7.00001C3.13401 42 0 38.866 0 35V7Z" fill="#4A4895"/>
<path d="M29 10H15V32H37V20H29V10Z" fill="white"/>
<path fill-rule="evenodd" clip-rule="evenodd" d="M22 25.15C22.4695 25.15 22.85 25.5306 22.85 26V32C22.85 32 22.4695 32 22 32C21.5306 32 21.15 32 21.15 32V26C21.15 25.5306 21.5306 25.15 22 25.15Z" fill="#4A4895"/>
<path fill-rule="evenodd" clip-rule="evenodd" d="M19.15 19C19.15 18.5305 19.5306 18.15 20 18.15L24 18.15C24.4695 18.15 24.85 18.5305 24.85 19C24.85 19.4694 24.4695 19.85 24 19.85L20 19.85C19.5306 19.85 19.15 19.4694 19.15 19Z" fill="#4A4895"/>
<path fill-rule="evenodd" clip-rule="evenodd" d="M19.15 15C19.15 14.5305 19.5306 14.15 20 14.15L24 14.15C24.4695 14.15 24.85 14.5305 24.85 15C24.85 15.4694 24.4695 15.85 24 15.85L20 15.85C19.5306 15.85 19.15 15.4694 19.15 15Z" fill="#4A4895"/>
<g clip-path="url(#clip0_41_1379)">
<path d="M30.66 20H29V32H30.66V20Z" fill="#4A4895"/>
</g>
<path d="M59.324 16.855V17.878H56.079V20.133H58.609V21.156H56.079V24.5H54.825V16.855H59.324ZM65.9751 18.439V24.5H64.7211V23.785C64.5231 24.0343 64.2628 24.2323 63.9401 24.379C63.6248 24.5183 63.2875 24.588 62.9281 24.588C62.4515 24.588 62.0225 24.489 61.6411 24.291C61.2671 24.093 60.9701 23.7997 60.7501 23.411C60.5375 23.0223 60.4311 22.553 60.4311 22.003V18.439H61.6741V21.816C61.6741 22.3587 61.8098 22.7767 62.0811 23.07C62.3525 23.356 62.7228 23.499 63.1921 23.499C63.6615 23.499 64.0318 23.356 64.3031 23.07C64.5818 22.7767 64.7211 22.3587 64.7211 21.816V18.439H65.9751ZM70.6877 18.34C71.1644 18.34 71.5897 18.439 71.9637 18.637C72.345 18.835 72.642 19.1283 72.8547 19.517C73.0674 19.9057 73.1737 20.375 73.1737 20.925V24.5H71.9307V21.112C71.9307 20.5693 71.795 20.155 71.5237 19.869C71.2524 19.5757 70.882 19.429 70.4127 19.429C69.9434 19.429 69.5694 19.5757 69.2907 19.869C69.0194 20.155 68.8837 20.5693 68.8837 21.112V24.5H67.6297V18.439H68.8837V19.132C69.089 18.8827 69.3494 18.6883 69.6647 18.549C69.9874 18.4097 70.3284 18.34 70.6877 18.34ZM74.3552 21.464C74.3552 20.8407 74.4799 20.2943 74.7292 19.825C74.9859 19.3483 75.3379 18.9817 75.7852 18.725C76.2326 18.4683 76.7459 18.34 77.3252 18.34C78.0586 18.34 78.6636 18.516 79.1402 18.868C79.6242 19.2127 79.9506 19.7077 80.1192 20.353H78.7662C78.6562 20.0523 78.4802 19.8177 78.2382 19.649C77.9962 19.4803 77.6919 19.396 77.3252 19.396C76.8119 19.396 76.4012 19.5793 76.0932 19.946C75.7926 20.3053 75.6422 20.8113 75.6422 21.464C75.6422 22.1167 75.7926 22.6263 76.0932 22.993C76.4012 23.3597 76.8119 23.543 77.3252 23.543C78.0512 23.543 78.5316 23.224 78.7662 22.586H80.1192C79.9432 23.202 79.6132 23.6933 79.1292 24.06C78.6452 24.4193 78.0439 24.599 77.3252 24.599C76.7459 24.599 76.2326 24.4707 75.7852 24.214C75.3379 23.95 74.9859 23.5833 74.7292 23.114C74.4799 22.6373 74.3552 22.0873 74.3552 21.464ZM82.8319 19.462V22.817C82.8319 23.0443 82.8833 23.2093 82.9859 23.312C83.0959 23.4073 83.2793 23.455 83.5359 23.455H84.3059V24.5H83.3159C82.7513 24.5 82.3186 24.368 82.0179 24.104C81.7173 23.84 81.5669 23.411 81.5669 22.817V19.462H80.8519V18.439H81.5669V16.932H82.8319V18.439H84.3059V19.462H82.8319ZM86.0997 17.636C85.8724 17.636 85.6817 17.559 85.5277 17.405C85.3737 17.251 85.2967 17.0603 85.2967 16.833C85.2967 16.6057 85.3737 16.415 85.5277 16.261C85.6817 16.107 85.8724 16.03 86.0997 16.03C86.3197 16.03 86.5067 16.107 86.6607 16.261C86.8147 16.415 86.8917 16.6057 86.8917 16.833C86.8917 17.0603 86.8147 17.251 86.6607 17.405C86.5067 17.559 86.3197 17.636 86.0997 17.636ZM86.7157 18.439V24.5H85.4617V18.439H86.7157ZM90.9911 24.599C90.4191 24.599 89.9021 24.4707 89.4401 24.214C88.9781 23.95 88.6151 23.5833 88.3511 23.114C88.0871 22.6373 87.9551 22.0873 87.9551 21.464C87.9551 20.848 88.0908 20.3017 88.3621 19.825C88.6334 19.3483 89.0038 18.9817 89.4731 18.725C89.9424 18.4683 90.4668 18.34 91.0461 18.34C91.6254 18.34 92.1498 18.4683 92.6191 18.725C93.0884 18.9817 93.4588 19.3483 93.7301 19.825C94.0014 20.3017 94.1371 20.848 94.1371 21.464C94.1371 22.08 93.9978 22.6263 93.7191 23.103C93.4404 23.5797 93.0591 23.95 92.5751 24.214C92.0984 24.4707 91.5704 24.599 90.9911 24.599ZM90.9911 23.51C91.3138 23.51 91.6144 23.433 91.8931 23.279C92.1791 23.125 92.4101 22.894 92.5861 22.586C92.7621 22.278 92.8501 21.904 92.8501 21.464C92.8501 21.024 92.7658 20.6537 92.5971 20.353C92.4284 20.045 92.2048 19.814 91.9261 19.66C91.6474 19.506 91.3468 19.429 91.0241 19.429C90.7014 19.429 90.4008 19.506 90.1221 19.66C89.8508 19.814 89.6344 20.045 89.4731 20.353C89.3118 20.6537 89.2311 21.024 89.2311 21.464C89.2311 22.1167 89.3961 22.6227 89.7261 22.982C90.0634 23.334 90.4851 23.51 90.9911 23.51ZM98.4348 18.34C98.9114 18.34 99.3368 18.439 99.7108 18.637C100.092 18.835 100.389 19.1283 100.602 19.517C100.814 19.9057 100.921 20.375 100.921 20.925V24.5H99.6778V21.112C99.6778 20.5693 99.5421 20.155 99.2708 19.869C98.9994 19.5757 98.6291 19.429 98.1598 19.429C97.6904 19.429 97.3164 19.5757 97.0378 19.869C96.7664 20.155 96.6308 20.5693 96.6308 21.112V24.5H95.3768V18.439H96.6308V19.132C96.8361 18.8827 97.0964 18.6883 97.4118 18.549C97.7344 18.4097 98.0754 18.34 98.4348 18.34ZM104.72 24.599C104.244 24.599 103.815 24.5147 103.433 24.346C103.059 24.17 102.762 23.9353 102.542 23.642C102.322 23.3413 102.205 23.0077 102.19 22.641H103.488C103.51 22.8977 103.631 23.114 103.851 23.29C104.079 23.4587 104.361 23.543 104.698 23.543C105.05 23.543 105.322 23.477 105.512 23.345C105.71 23.2057 105.809 23.0297 105.809 22.817C105.809 22.5897 105.699 22.421 105.479 22.311C105.267 22.201 104.926 22.08 104.456 21.948C104.002 21.8233 103.631 21.7023 103.345 21.585C103.059 21.4677 102.81 21.288 102.597 21.046C102.392 20.804 102.289 20.485 102.289 20.089C102.289 19.7663 102.385 19.473 102.575 19.209C102.766 18.9377 103.037 18.725 103.389 18.571C103.749 18.417 104.159 18.34 104.621 18.34C105.311 18.34 105.864 18.516 106.282 18.868C106.708 19.2127 106.935 19.6857 106.964 20.287H105.71C105.688 20.0157 105.578 19.7993 105.38 19.638C105.182 19.4767 104.915 19.396 104.577 19.396C104.247 19.396 103.994 19.4583 103.818 19.583C103.642 19.7077 103.554 19.8727 103.554 20.078C103.554 20.2393 103.613 20.375 103.73 20.485C103.848 20.595 103.991 20.683 104.159 20.749C104.328 20.8077 104.577 20.8847 104.907 20.98C105.347 21.0973 105.707 21.2183 105.985 21.343C106.271 21.4603 106.517 21.6363 106.722 21.871C106.928 22.1057 107.034 22.4173 107.041 22.806C107.041 23.1507 106.946 23.4587 106.755 23.73C106.565 24.0013 106.293 24.214 105.941 24.368C105.597 24.522 105.19 24.599 104.72 24.599Z" fill="white"/>
<defs>
<clipPath id="clip0_41_1379">
<rect width="1.66" height="12" fill="white" transform="translate(29 20)"/>
</clipPath>
</defs>
</svg>
