<svg width="210" height="42" viewBox="0 0 210 42" fill="none" xmlns="http://www.w3.org/2000/svg">
<path d="M0 7C0 3.13401 3.13401 0 7 0H203C206.866 0 210 3.13401 210 7V35C210 38.866 206.866 42 203 42H7.00001C3.13401 42 0 38.866 0 35V7Z" fill="#4A4895"/>
<path d="M35.28 13.59V12.59C35.28 11.9048 35.0085 11.2476 34.5249 10.7621C34.0414 10.2767 33.3852 10.0026 32.7 10H17.57C16.8875 10.0026 16.2338 10.2756 15.7521 10.7592C15.2704 11.2427 15 11.8975 15 12.58V29.42C15 30.1025 15.2704 30.7573 15.7521 31.2408C16.2338 31.7244 16.8875 31.9974 17.57 32H34.42C35.1034 31.9974 35.7582 31.7247 36.2414 31.2414C36.7247 30.7582 36.9974 30.1034 37 29.42V16C36.9954 15.4703 36.8278 14.9549 36.5201 14.5237C36.2124 14.0925 35.7794 13.7666 35.28 13.59ZM33.5 12.59V13.45H22.5C22.2727 13.4474 22.0555 13.356 21.8948 13.1952C21.734 13.0345 21.6426 12.8173 21.64 12.59V11.72H32.64C32.7533 11.7187 32.8657 11.74 32.9707 11.7827C33.0756 11.8255 33.171 11.8888 33.2511 11.9689C33.3312 12.049 33.3945 12.1444 33.4373 12.2493C33.48 12.3543 33.5013 12.4667 33.5 12.58V12.59Z" fill="white"/>
<path d="M29.5991 20.3506L30.877 19.0727L29.6617 17.8574L28.3838 19.1352C27.9329 18.8363 27.4229 18.6199 26.875 18.5083V16.7031H25.1562V18.5083C24.6084 18.6199 24.0983 18.8363 23.6474 19.1352L22.3696 17.8574L21.1543 19.0727L22.4321 20.3506C22.1332 20.8014 21.9168 21.3115 21.8052 21.8594H20V23.5781H21.8052C21.9168 24.126 22.1332 24.6361 22.4321 25.0869L21.1543 26.3648L22.3696 27.5801L23.6474 26.3023C24.0983 26.6012 24.6084 26.8176 25.1562 26.9292V28.7344H26.875V26.9292C27.4228 26.8176 27.9329 26.6012 28.3838 26.3023L29.6617 27.5801L30.877 26.3648L29.5991 25.0869C29.8981 24.6361 30.1145 24.126 30.2261 23.5781H32.0312V21.8594H30.2261C30.1145 21.3115 29.8981 20.8014 29.5991 20.3506ZM26.0156 25.2969C24.594 25.2969 23.4375 24.1403 23.4375 22.7188C23.4375 21.2972 24.594 20.1406 26.0156 20.1406C27.4372 20.1406 28.5938 21.2972 28.5938 22.7188C28.5938 24.1403 27.4372 25.2969 26.0156 25.2969Z" fill="#4A4895"/>
<path d="M26.0156 23.5781C26.4902 23.5781 26.875 23.1934 26.875 22.7188C26.875 22.2441 26.4902 21.8594 26.0156 21.8594C25.541 21.8594 25.1562 22.2441 25.1562 22.7188C25.1562 23.1934 25.541 23.5781 26.0156 23.5781Z" fill="#9290D4"/>
<path d="M62.877 16.855V24.5H61.623V19.264L59.291 24.5H58.422L56.079 19.264V24.5H54.825V16.855H56.178L58.862 22.85L61.535 16.855H62.877ZM64.1072 21.442C64.1072 20.8333 64.2319 20.2943 64.4812 19.825C64.7379 19.3557 65.0825 18.9927 65.5152 18.736C65.9552 18.472 66.4392 18.34 66.9672 18.34C67.4439 18.34 67.8582 18.4353 68.2102 18.626C68.5695 18.8093 68.8555 19.0403 69.0682 19.319V18.439H70.3332V24.5H69.0682V23.598C68.8555 23.884 68.5659 24.1223 68.1992 24.313C67.8325 24.5037 67.4145 24.599 66.9452 24.599C66.4245 24.599 65.9479 24.467 65.5152 24.203C65.0825 23.9317 64.7379 23.5577 64.4812 23.081C64.2319 22.597 64.1072 22.0507 64.1072 21.442ZM69.0682 21.464C69.0682 21.046 68.9802 20.683 68.8042 20.375C68.6355 20.067 68.4119 19.8323 68.1332 19.671C67.8545 19.5097 67.5539 19.429 67.2312 19.429C66.9085 19.429 66.6079 19.5097 66.3292 19.671C66.0505 19.825 65.8232 20.056 65.6472 20.364C65.4785 20.6647 65.3942 21.024 65.3942 21.442C65.3942 21.86 65.4785 22.2267 65.6472 22.542C65.8232 22.8573 66.0505 23.0993 66.3292 23.268C66.6152 23.4293 66.9159 23.51 67.2312 23.51C67.5539 23.51 67.8545 23.4293 68.1332 23.268C68.4119 23.1067 68.6355 22.872 68.8042 22.564C68.9802 22.2487 69.0682 21.882 69.0682 21.464ZM75.0383 18.34C75.5149 18.34 75.9403 18.439 76.3143 18.637C76.6956 18.835 76.9926 19.1283 77.2053 19.517C77.4179 19.9057 77.5243 20.375 77.5243 20.925V24.5H76.2813V21.112C76.2813 20.5693 76.1456 20.155 75.8743 19.869C75.6029 19.5757 75.2326 19.429 74.7633 19.429C74.2939 19.429 73.9199 19.5757 73.6413 19.869C73.3699 20.155 73.2343 20.5693 73.2343 21.112V24.5H71.9803V18.439H73.2343V19.132C73.4396 18.8827 73.6999 18.6883 74.0153 18.549C74.3379 18.4097 74.6789 18.34 75.0383 18.34ZM78.7058 21.442C78.7058 20.8333 78.8305 20.2943 79.0798 19.825C79.3365 19.3557 79.6812 18.9927 80.1138 18.736C80.5538 18.472 81.0378 18.34 81.5658 18.34C82.0425 18.34 82.4568 18.4353 82.8088 18.626C83.1682 18.8093 83.4542 19.0403 83.6668 19.319V18.439H84.9318V24.5H83.6668V23.598C83.4542 23.884 83.1645 24.1223 82.7978 24.313C82.4312 24.5037 82.0132 24.599 81.5438 24.599C81.0232 24.599 80.5465 24.467 80.1138 24.203C79.6812 23.9317 79.3365 23.5577 79.0798 23.081C78.8305 22.597 78.7058 22.0507 78.7058 21.442ZM83.6668 21.464C83.6668 21.046 83.5788 20.683 83.4028 20.375C83.2342 20.067 83.0105 19.8323 82.7318 19.671C82.4532 19.5097 82.1525 19.429 81.8298 19.429C81.5072 19.429 81.2065 19.5097 80.9278 19.671C80.6492 19.825 80.4218 20.056 80.2458 20.364C80.0772 20.6647 79.9928 21.024 79.9928 21.442C79.9928 21.86 80.0772 22.2267 80.2458 22.542C80.4218 22.8573 80.6492 23.0993 80.9278 23.268C81.2138 23.4293 81.5145 23.51 81.8298 23.51C82.1525 23.51 82.4532 23.4293 82.7318 23.268C83.0105 23.1067 83.2342 22.872 83.4028 22.564C83.5788 22.2487 83.6668 21.882 83.6668 21.464ZM89.0209 18.34C89.4902 18.34 89.9046 18.4353 90.2639 18.626C90.6306 18.8093 90.9166 19.0403 91.1219 19.319V18.439H92.3869V24.599C92.3869 25.1563 92.2696 25.6513 92.0349 26.084C91.8002 26.524 91.4592 26.8687 91.0119 27.118C90.5719 27.3673 90.0439 27.492 89.4279 27.492C88.6066 27.492 87.9246 27.2977 87.3819 26.909C86.8392 26.5277 86.5312 26.007 86.4579 25.347H87.7009C87.7962 25.6623 87.9979 25.9153 88.3059 26.106C88.6212 26.304 88.9952 26.403 89.4279 26.403C89.9339 26.403 90.3409 26.249 90.6489 25.941C90.9642 25.633 91.1219 25.1857 91.1219 24.599V23.587C90.9092 23.873 90.6196 24.115 90.2529 24.313C89.8936 24.5037 89.4829 24.599 89.0209 24.599C88.4929 24.599 88.0089 24.467 87.5689 24.203C87.1362 23.9317 86.7916 23.5577 86.5349 23.081C86.2856 22.597 86.1609 22.0507 86.1609 21.442C86.1609 20.8333 86.2856 20.2943 86.5349 19.825C86.7916 19.3557 87.1362 18.9927 87.5689 18.736C88.0089 18.472 88.4929 18.34 89.0209 18.34ZM91.1219 21.464C91.1219 21.046 91.0339 20.683 90.8579 20.375C90.6892 20.067 90.4656 19.8323 90.1869 19.671C89.9082 19.5097 89.6076 19.429 89.2849 19.429C88.9622 19.429 88.6616 19.5097 88.3829 19.671C88.1042 19.825 87.8769 20.056 87.7009 20.364C87.5322 20.6647 87.4479 21.024 87.4479 21.442C87.4479 21.86 87.5322 22.2267 87.7009 22.542C87.8769 22.8573 88.1042 23.0993 88.3829 23.268C88.6689 23.4293 88.9696 23.51 89.2849 23.51C89.6076 23.51 89.9082 23.4293 90.1869 23.268C90.4656 23.1067 90.6892 22.872 90.8579 22.564C91.0339 22.2487 91.1219 21.882 91.1219 21.464ZM99.589 21.321C99.589 21.5483 99.5743 21.7537 99.545 21.937H94.914C94.9507 22.421 95.1303 22.8097 95.453 23.103C95.7757 23.3963 96.1717 23.543 96.641 23.543C97.3157 23.543 97.7923 23.2607 98.071 22.696H99.424C99.2407 23.2533 98.907 23.7117 98.423 24.071C97.9463 24.423 97.3523 24.599 96.641 24.599C96.0617 24.599 95.541 24.4707 95.079 24.214C94.6243 23.95 94.265 23.5833 94.001 23.114C93.7443 22.6373 93.616 22.0873 93.616 21.464C93.616 20.8407 93.7407 20.2943 93.99 19.825C94.2467 19.3483 94.6023 18.9817 95.057 18.725C95.519 18.4683 96.047 18.34 96.641 18.34C97.213 18.34 97.7227 18.4647 98.17 18.714C98.6173 18.9633 98.9657 19.3153 99.215 19.77C99.4643 20.2173 99.589 20.7343 99.589 21.321ZM98.28 20.925C98.2727 20.463 98.1077 20.0927 97.785 19.814C97.4623 19.5353 97.0627 19.396 96.586 19.396C96.1533 19.396 95.783 19.5353 95.475 19.814C95.167 20.0853 94.9837 20.4557 94.925 20.925H98.28ZM108.16 18.34C108.637 18.34 109.062 18.439 109.436 18.637C109.817 18.835 110.114 19.1283 110.327 19.517C110.547 19.9057 110.657 20.375 110.657 20.925V24.5H109.414V21.112C109.414 20.5693 109.278 20.155 109.007 19.869C108.736 19.5757 108.365 19.429 107.896 19.429C107.427 19.429 107.053 19.5757 106.774 19.869C106.503 20.155 106.367 20.5693 106.367 21.112V24.5H105.124V21.112C105.124 20.5693 104.988 20.155 104.717 19.869C104.446 19.5757 104.075 19.429 103.606 19.429C103.137 19.429 102.763 19.5757 102.484 19.869C102.213 20.155 102.077 20.5693 102.077 21.112V24.5H100.823V18.439H102.077V19.132C102.282 18.8827 102.543 18.6883 102.858 18.549C103.173 18.4097 103.511 18.34 103.87 18.34C104.354 18.34 104.787 18.4427 105.168 18.648C105.549 18.8533 105.843 19.1503 106.048 19.539C106.231 19.1723 106.517 18.8827 106.906 18.67C107.295 18.45 107.713 18.34 108.16 18.34ZM117.808 21.321C117.808 21.5483 117.793 21.7537 117.764 21.937H113.133C113.169 22.421 113.349 22.8097 113.672 23.103C113.994 23.3963 114.39 23.543 114.86 23.543C115.534 23.543 116.011 23.2607 116.29 22.696H117.643C117.459 23.2533 117.126 23.7117 116.642 24.071C116.165 24.423 115.571 24.599 114.86 24.599C114.28 24.599 113.76 24.4707 113.298 24.214C112.843 23.95 112.484 23.5833 112.22 23.114C111.963 22.6373 111.835 22.0873 111.835 21.464C111.835 20.8407 111.959 20.2943 112.209 19.825C112.465 19.3483 112.821 18.9817 113.276 18.725C113.738 18.4683 114.266 18.34 114.86 18.34C115.432 18.34 115.941 18.4647 116.389 18.714C116.836 18.9633 117.184 19.3153 117.434 19.77C117.683 20.2173 117.808 20.7343 117.808 21.321ZM116.499 20.925C116.491 20.463 116.326 20.0927 116.004 19.814C115.681 19.5353 115.281 19.396 114.805 19.396C114.372 19.396 114.002 19.5353 113.694 19.814C113.386 20.0853 113.202 20.4557 113.144 20.925H116.499ZM122.1 18.34C122.576 18.34 123.002 18.439 123.376 18.637C123.757 18.835 124.054 19.1283 124.267 19.517C124.479 19.9057 124.586 20.375 124.586 20.925V24.5H123.343V21.112C123.343 20.5693 123.207 20.155 122.936 19.869C122.664 19.5757 122.294 19.429 121.825 19.429C121.355 19.429 120.981 19.5757 120.703 19.869C120.431 20.155 120.296 20.5693 120.296 21.112V24.5H119.042V18.439H120.296V19.132C120.501 18.8827 120.761 18.6883 121.077 18.549C121.399 18.4097 121.74 18.34 122.1 18.34ZM127.648 19.462V22.817C127.648 23.0443 127.7 23.2093 127.802 23.312C127.912 23.4073 128.096 23.455 128.352 23.455H129.122V24.5H128.132C127.568 24.5 127.135 24.368 126.834 24.104C126.534 23.84 126.383 23.411 126.383 22.817V19.462H125.668V18.439H126.383V16.932H127.648V18.439H129.122V19.462H127.648Z" fill="white"/>
</svg>
