<svg width="42" height="42" viewBox="0 0 42 42" fill="none" xmlns="http://www.w3.org/2000/svg">
<path d="M0 7C0 3.13401 3.13401 0 7 0H35C38.866 0 42 3.13401 42 7V35C42 38.866 38.866 42 35 42H7C3.13401 42 0 38.866 0 35V7Z" fill="#4A4895"/>
<path d="M30.28 13.59V12.59C30.28 11.9048 30.0085 11.2476 29.5249 10.7621C29.0414 10.2767 28.3852 10.0026 27.7 10H12.57C11.8875 10.0026 11.2338 10.2756 10.7521 10.7592C10.2704 11.2427 9.99999 11.8975 10 12.58V29.42C9.99999 30.1025 10.2704 30.7573 10.7521 31.2408C11.2338 31.7244 11.8875 31.9974 12.57 32H29.42C30.1034 31.9974 30.7582 31.7247 31.2414 31.2414C31.7247 30.7582 31.9974 30.1034 32 29.42V16C31.9954 15.4703 31.8278 14.9549 31.5201 14.5237C31.2124 14.0925 30.7794 13.7666 30.28 13.59ZM28.5 12.59V13.45H17.5C17.2727 13.4474 17.0555 13.356 16.8948 13.1952C16.734 13.0345 16.6426 12.8173 16.64 12.59V11.72H27.64C27.7533 11.7187 27.8657 11.74 27.9707 11.7827C28.0756 11.8255 28.171 11.8888 28.2511 11.9689C28.3312 12.049 28.3945 12.1444 28.4373 12.2493C28.48 12.3543 28.5013 12.4667 28.5 12.58V12.59Z" fill="white"/>
<path d="M24.5991 20.3506L25.877 19.0727L24.6617 17.8574L23.3838 19.1352C22.9329 18.8363 22.4229 18.6199 21.875 18.5083V16.7031H20.1562V18.5083C19.6084 18.6199 19.0983 18.8363 18.6474 19.1352L17.3696 17.8574L16.1543 19.0727L17.4321 20.3506C17.1332 20.8014 16.9168 21.3115 16.8052 21.8594H15V23.5781H16.8052C16.9168 24.126 17.1332 24.6361 17.4321 25.0869L16.1543 26.3648L17.3696 27.5801L18.6474 26.3023C19.0983 26.6012 19.6084 26.8176 20.1562 26.9292V28.7344H21.875V26.9292C22.4228 26.8176 22.9329 26.6012 23.3838 26.3023L24.6617 27.5801L25.877 26.3648L24.5991 25.0869C24.8981 24.6361 25.1145 24.126 25.2261 23.5781H27.0312V21.8594H25.2261C25.1145 21.3115 24.8981 20.8014 24.5991 20.3506ZM21.0156 25.2969C19.594 25.2969 18.4375 24.1403 18.4375 22.7188C18.4375 21.2972 19.594 20.1406 21.0156 20.1406C22.4372 20.1406 23.5938 21.2972 23.5938 22.7188C23.5938 24.1403 22.4372 25.2969 21.0156 25.2969Z" fill="#4A4895"/>
<path d="M21.0156 23.5781C21.4902 23.5781 21.875 23.1934 21.875 22.7188C21.875 22.2441 21.4902 21.8594 21.0156 21.8594C20.541 21.8594 20.1562 22.2441 20.1562 22.7188C20.1562 23.1934 20.541 23.5781 21.0156 23.5781Z" fill="#4A4895"/>
</svg>
